<svg xmlns="http://www.w3.org/2000/svg" xmlns:xlink="http://www.w3.org/1999/xlink" contentStyleType="text/css" data-diagram-type="CLASS" height="507px" preserveAspectRatio="none" style="width:5169px;height:507px;background:#FFFFFF;" version="1.1" viewBox="0 0 5169 507" width="5169px" zoomAndPan="magnify"><defs/><g><!--cluster Frontend--><g class="cluster" data-entity="Frontend" data-source-line="1" data-uid="ent0002" id="cluster_Frontend"><path d="M722.32,6 L795.5485,6 A3.75,3.75 0 0 1 798.0485,8.5 L805.0485,28.2969 L4391.32,28.2969 A2.5,2.5 0 0 1 4393.82,30.7969 L4393.82,202.09 A2.5,2.5 0 0 1 4391.32,204.59 L722.32,204.59 A2.5,2.5 0 0 1 719.82,202.09 L719.82,8.5 A2.5,2.5 0 0 1 722.32,6" fill="none" style="stroke:#000000;stroke-width:1.5;"/><line style="stroke:#000000;stroke-width:1.5;" x1="719.82" x2="805.0485" y1="28.2969" y2="28.2969"/><text fill="#000000" font-family="sans-serif" font-size="14" font-weight="bold" lengthAdjust="spacing" textLength="72.2285" x="723.82" y="20.9951">Frontend</text></g><!--cluster index--><g class="cluster" data-entity="index" data-source-line="2" data-uid="ent0004" id="cluster_index"><path d="M746.32,49 L790.6325,49 A3.75,3.75 0 0 1 793.1325,51.5 L800.1325,71.2969 L881.32,71.2969 A2.5,2.5 0 0 1 883.82,73.7969 L883.82,178.09 A2.5,2.5 0 0 1 881.32,180.59 L746.32,180.59 A2.5,2.5 0 0 1 743.82,178.09 L743.82,51.5 A2.5,2.5 0 0 1 746.32,49" fill="none" style="stroke:#000000;stroke-width:1.5;"/><line style="stroke:#000000;stroke-width:1.5;" x1="743.82" x2="800.1325" y1="71.2969" y2="71.2969"/><text fill="#000000" font-family="sans-serif" font-size="14" font-weight="bold" lengthAdjust="spacing" textLength="43.3125" x="747.82" y="63.9951">index</text></g><!--cluster profile--><g class="cluster" data-entity="profile" data-source-line="6" data-uid="ent0006" id="cluster_profile"><path d="M910.32,49 L963.0475,49 A3.75,3.75 0 0 1 965.5475,51.5 L972.5475,71.2969 L1158.32,71.2969 A2.5,2.5 0 0 1 1160.82,73.7969 L1160.82,178.09 A2.5,2.5 0 0 1 1158.32,180.59 L910.32,180.59 A2.5,2.5 0 0 1 907.82,178.09 L907.82,51.5 A2.5,2.5 0 0 1 910.32,49" fill="none" style="stroke:#000000;stroke-width:1.5;"/><line style="stroke:#000000;stroke-width:1.5;" x1="907.82" x2="972.5475" y1="71.2969" y2="71.2969"/><text fill="#000000" font-family="sans-serif" font-size="14" font-weight="bold" lengthAdjust="spacing" textLength="51.7275" x="911.82" y="63.9951">profile</text></g><!--cluster registro--><g class="cluster" data-entity="registro" data-source-line="10" data-uid="ent0008" id="cluster_registro"><path d="M1187.32,57.14 L1251.0876,57.14 A3.75,3.75 0 0 1 1253.5876,59.64 L1260.5876,79.4369 L1376.32,79.4369 A2.5,2.5 0 0 1 1378.82,81.9369 L1378.82,169.94 A2.5,2.5 0 0 1 1376.32,172.44 L1187.32,172.44 A2.5,2.5 0 0 1 1184.82,169.94 L1184.82,59.64 A2.5,2.5 0 0 1 1187.32,57.14" fill="none" style="stroke:#000000;stroke-width:1.5;"/><line style="stroke:#000000;stroke-width:1.5;" x1="1184.82" x2="1260.5876" y1="79.4369" y2="79.4369"/><text fill="#000000" font-family="sans-serif" font-size="14" font-weight="bold" lengthAdjust="spacing" textLength="62.7676" x="1188.82" y="72.1351">registro</text></g><!--cluster dashboard--><g class="cluster" data-entity="dashboard" data-source-line="13" data-uid="ent0010" id="cluster_dashboard"><path d="M1405.32,49 L1490.1013,49 A3.75,3.75 0 0 1 1492.6013,51.5 L1499.6013,71.2969 L1668.32,71.2969 A2.5,2.5 0 0 1 1670.82,73.7969 L1670.82,178.09 A2.5,2.5 0 0 1 1668.32,180.59 L1405.32,180.59 A2.5,2.5 0 0 1 1402.82,178.09 L1402.82,51.5 A2.5,2.5 0 0 1 1405.32,49" fill="none" style="stroke:#000000;stroke-width:1.5;"/><line style="stroke:#000000;stroke-width:1.5;" x1="1402.82" x2="1499.6013" y1="71.2969" y2="71.2969"/><text fill="#000000" font-family="sans-serif" font-size="14" font-weight="bold" lengthAdjust="spacing" textLength="83.7813" x="1406.82" y="63.9951">dashboard</text></g><!--cluster admin_tools_admins--><g class="cluster" data-entity="admin_tools_admins" data-source-line="17" data-uid="ent0012" id="cluster_admin_tools_admins"><path d="M1697.32,65.29 L1857.3581,65.29 A3.75,3.75 0 0 1 1859.8581,67.79 L1866.8581,87.5869 L1867.32,87.5869 A2.5,2.5 0 0 1 1869.82,90.0869 L1869.82,161.79 A2.5,2.5 0 0 1 1867.32,164.29 L1697.32,164.29 A2.5,2.5 0 0 1 1694.82,161.79 L1694.82,67.79 A2.5,2.5 0 0 1 1697.32,65.29" fill="none" style="stroke:#000000;stroke-width:1.5;"/><line style="stroke:#000000;stroke-width:1.5;" x1="1694.82" x2="1866.8581" y1="87.5869" y2="87.5869"/><text fill="#000000" font-family="sans-serif" font-size="14" font-weight="bold" lengthAdjust="spacing" textLength="159.0381" x="1698.82" y="80.2851">admin_tools_admins</text></g><!--cluster admin_tools_professors--><g class="cluster" data-entity="admin_tools_professors" data-source-line="18" data-uid="ent0014" id="cluster_admin_tools_professors"><path d="M1896.32,65.29 L2082.8542,65.29 A3.75,3.75 0 0 1 2085.3542,67.79 L2092.3542,87.5869 L2092.32,87.5869 A2.5,2.5 0 0 1 2094.82,90.0869 L2094.82,161.79 A2.5,2.5 0 0 1 2092.32,164.29 L1896.32,164.29 A2.5,2.5 0 0 1 1893.82,161.79 L1893.82,67.79 A2.5,2.5 0 0 1 1896.32,65.29" fill="none" style="stroke:#000000;stroke-width:1.5;"/><line style="stroke:#000000;stroke-width:1.5;" x1="1893.82" x2="2092.3542" y1="87.5869" y2="87.5869"/><text fill="#000000" font-family="sans-serif" font-size="14" font-weight="bold" lengthAdjust="spacing" textLength="185.5342" x="1897.82" y="80.2851">admin_tools_professors</text></g><!--cluster admin_tools_students--><g class="cluster" data-entity="admin_tools_students" data-source-line="19" data-uid="ent0016" id="cluster_admin_tools_students"><path d="M2121.32,65.29 L2293.7038,65.29 A3.75,3.75 0 0 1 2296.2038,67.79 L2303.2038,87.5869 L2303.32,87.5869 A2.5,2.5 0 0 1 2305.82,90.0869 L2305.82,161.79 A2.5,2.5 0 0 1 2303.32,164.29 L2121.32,164.29 A2.5,2.5 0 0 1 2118.82,161.79 L2118.82,67.79 A2.5,2.5 0 0 1 2121.32,65.29" fill="none" style="stroke:#000000;stroke-width:1.5;"/><line style="stroke:#000000;stroke-width:1.5;" x1="2118.82" x2="2303.2038" y1="87.5869" y2="87.5869"/><text fill="#000000" font-family="sans-serif" font-size="14" font-weight="bold" lengthAdjust="spacing" textLength="171.3838" x="2122.82" y="80.2851">admin_tools_students</text></g><!--cluster admin_tools_inactive_users--><g class="cluster" data-entity="admin_tools_inactive_users" data-source-line="20" data-uid="ent0018" id="cluster_admin_tools_inactive_users"><path d="M2332.32,65.29 L2547.8591,65.29 A3.75,3.75 0 0 1 2550.3591,67.79 L2557.3591,87.5869 L2557.32,87.5869 A2.5,2.5 0 0 1 2559.82,90.0869 L2559.82,161.79 A2.5,2.5 0 0 1 2557.32,164.29 L2332.32,164.29 A2.5,2.5 0 0 1 2329.82,161.79 L2329.82,67.79 A2.5,2.5 0 0 1 2332.32,65.29" fill="none" style="stroke:#000000;stroke-width:1.5;"/><line style="stroke:#000000;stroke-width:1.5;" x1="2329.82" x2="2557.3591" y1="87.5869" y2="87.5869"/><text fill="#000000" font-family="sans-serif" font-size="14" font-weight="bold" lengthAdjust="spacing" textLength="214.5391" x="2333.82" y="80.2851">admin_tools_inactive_users</text></g><!--cluster admin_tools_online_training--><g class="cluster" data-entity="admin_tools_online_training" data-source-line="21" data-uid="ent0020" id="cluster_admin_tools_online_training"><path d="M2586.32,65.29 L2807.444,65.29 A3.75,3.75 0 0 1 2809.944,67.79 L2816.944,87.5869 L2817.32,87.5869 A2.5,2.5 0 0 1 2819.82,90.0869 L2819.82,161.79 A2.5,2.5 0 0 1 2817.32,164.29 L2586.32,164.29 A2.5,2.5 0 0 1 2583.82,161.79 L2583.82,67.79 A2.5,2.5 0 0 1 2586.32,65.29" fill="none" style="stroke:#000000;stroke-width:1.5;"/><line style="stroke:#000000;stroke-width:1.5;" x1="2583.82" x2="2816.944" y1="87.5869" y2="87.5869"/><text fill="#000000" font-family="sans-serif" font-size="14" font-weight="bold" lengthAdjust="spacing" textLength="220.124" x="2587.82" y="80.2851">admin_tools_online_training</text></g><!--cluster admin_tool_courses--><g class="cluster" data-entity="admin_tool_courses" data-source-line="22" data-uid="ent0022" id="cluster_admin_tool_courses"><path d="M2846.32,65.29 L3001.819,65.29 A3.75,3.75 0 0 1 3004.319,67.79 L3011.319,87.5869 L3011.32,87.5869 A2.5,2.5 0 0 1 3013.82,90.0869 L3013.82,161.79 A2.5,2.5 0 0 1 3011.32,164.29 L2846.32,164.29 A2.5,2.5 0 0 1 2843.82,161.79 L2843.82,67.79 A2.5,2.5 0 0 1 2846.32,65.29" fill="none" style="stroke:#000000;stroke-width:1.5;"/><line style="stroke:#000000;stroke-width:1.5;" x1="2843.82" x2="3011.319" y1="87.5869" y2="87.5869"/><text fill="#000000" font-family="sans-serif" font-size="14" font-weight="bold" lengthAdjust="spacing" textLength="154.499" x="2847.82" y="80.2851">admin_tool_courses</text></g><!--cluster aprende_mas_popup--><g class="cluster" data-entity="aprende_mas_popup" data-source-line="23" data-uid="ent0024" id="cluster_aprende_mas_popup"><path d="M3040.32,65.29 L3202.6891,65.29 A3.75,3.75 0 0 1 3205.1891,67.79 L3212.1891,87.5869 L3212.32,87.5869 A2.5,2.5 0 0 1 3214.82,90.0869 L3214.82,161.79 A2.5,2.5 0 0 1 3212.32,164.29 L3040.32,164.29 A2.5,2.5 0 0 1 3037.82,161.79 L3037.82,67.79 A2.5,2.5 0 0 1 3040.32,65.29" fill="none" style="stroke:#000000;stroke-width:1.5;"/><line style="stroke:#000000;stroke-width:1.5;" x1="3037.82" x2="3212.1891" y1="87.5869" y2="87.5869"/><text fill="#000000" font-family="sans-serif" font-size="14" font-weight="bold" lengthAdjust="spacing" textLength="161.3691" x="3041.82" y="80.2851">aprende_mas_popup</text></g><!--cluster ayuda_popup--><g class="cluster" data-entity="ayuda_popup" data-source-line="24" data-uid="ent0026" id="cluster_ayuda_popup"><path d="M3241.32,65.29 L3346.9782,65.29 A3.75,3.75 0 0 1 3349.4782,67.79 L3356.4782,87.5869 L3356.32,87.5869 A2.5,2.5 0 0 1 3358.82,90.0869 L3358.82,161.79 A2.5,2.5 0 0 1 3356.32,164.29 L3241.32,164.29 A2.5,2.5 0 0 1 3238.82,161.79 L3238.82,67.79 A2.5,2.5 0 0 1 3241.32,65.29" fill="none" style="stroke:#000000;stroke-width:1.5;"/><line style="stroke:#000000;stroke-width:1.5;" x1="3238.82" x2="3356.4782" y1="87.5869" y2="87.5869"/><text fill="#000000" font-family="sans-serif" font-size="14" font-weight="bold" lengthAdjust="spacing" textLength="104.6582" x="3242.82" y="80.2851">ayuda_popup</text></g><!--cluster contacto_popup--><g class="cluster" data-entity="contacto_popup" data-source-line="25" data-uid="ent0028" id="cluster_contacto_popup"><path d="M3385.32,65.29 L3511.6022,65.29 A3.75,3.75 0 0 1 3514.1022,67.79 L3521.1022,87.5869 L3521.32,87.5869 A2.5,2.5 0 0 1 3523.82,90.0869 L3523.82,161.79 A2.5,2.5 0 0 1 3521.32,164.29 L3385.32,164.29 A2.5,2.5 0 0 1 3382.82,161.79 L3382.82,67.79 A2.5,2.5 0 0 1 3385.32,65.29" fill="none" style="stroke:#000000;stroke-width:1.5;"/><line style="stroke:#000000;stroke-width:1.5;" x1="3382.82" x2="3521.1022" y1="87.5869" y2="87.5869"/><text fill="#000000" font-family="sans-serif" font-size="14" font-weight="bold" lengthAdjust="spacing" textLength="125.2822" x="3386.82" y="80.2851">contacto_popup</text></g><!--cluster cursos--><g class="cluster" data-entity="cursos" data-source-line="26" data-uid="ent0030" id="cluster_cursos"><path d="M3550.32,65.29 L3602.7741,65.29 A3.75,3.75 0 0 1 3605.2741,67.79 L3612.2741,87.5869 L3641.32,87.5869 A2.5,2.5 0 0 1 3643.82,90.0869 L3643.82,161.79 A2.5,2.5 0 0 1 3641.32,164.29 L3550.32,164.29 A2.5,2.5 0 0 1 3547.82,161.79 L3547.82,67.79 A2.5,2.5 0 0 1 3550.32,65.29" fill="none" style="stroke:#000000;stroke-width:1.5;"/><line style="stroke:#000000;stroke-width:1.5;" x1="3547.82" x2="3612.2741" y1="87.5869" y2="87.5869"/><text fill="#000000" font-family="sans-serif" font-size="14" font-weight="bold" lengthAdjust="spacing" textLength="51.4541" x="3551.82" y="80.2851">cursos</text></g><!--cluster style--><g class="cluster" data-entity="style" data-source-line="28" data-uid="ent0033" id="cluster_style"><path d="M3670.32,65.29 L3709.7653,65.29 A3.75,3.75 0 0 1 3712.2653,67.79 L3719.2653,87.5869 L3751.32,87.5869 A2.5,2.5 0 0 1 3753.82,90.0869 L3753.82,161.79 A2.5,2.5 0 0 1 3751.32,164.29 L3670.32,164.29 A2.5,2.5 0 0 1 3667.82,161.79 L3667.82,67.79 A2.5,2.5 0 0 1 3670.32,65.29" fill="none" style="stroke:#000000;stroke-width:1.5;"/><line style="stroke:#000000;stroke-width:1.5;" x1="3667.82" x2="3719.2653" y1="87.5869" y2="87.5869"/><text fill="#000000" font-family="sans-serif" font-size="14" font-weight="bold" lengthAdjust="spacing" textLength="38.4453" x="3671.82" y="80.2851">style</text></g><!--cluster scripts--><g class="cluster" data-entity="scripts" data-source-line="29" data-uid="ent0035" id="cluster_scripts"><path d="M3780.32,65.29 L3834.7018,65.29 A3.75,3.75 0 0 1 3837.2018,67.79 L3844.2018,87.5869 L3851.32,87.5869 A2.5,2.5 0 0 1 3853.82,90.0869 L3853.82,161.79 A2.5,2.5 0 0 1 3851.32,164.29 L3780.32,164.29 A2.5,2.5 0 0 1 3777.82,161.79 L3777.82,67.79 A2.5,2.5 0 0 1 3780.32,65.29" fill="none" style="stroke:#000000;stroke-width:1.5;"/><line style="stroke:#000000;stroke-width:1.5;" x1="3777.82" x2="3844.2018" y1="87.5869" y2="87.5869"/><text fill="#000000" font-family="sans-serif" font-size="14" font-weight="bold" lengthAdjust="spacing" textLength="53.3818" x="3781.82" y="80.2851">scripts</text></g><!--cluster admin_tools_common--><g class="cluster" data-entity="admin_tools_common" data-source-line="31" data-uid="ent0038" id="cluster_admin_tools_common"><path d="M3880.32,65.29 L4049.8805,65.29 A3.75,3.75 0 0 1 4052.3805,67.79 L4059.3805,87.5869 L4059.32,87.5869 A2.5,2.5 0 0 1 4061.82,90.0869 L4061.82,161.79 A2.5,2.5 0 0 1 4059.32,164.29 L3880.32,164.29 A2.5,2.5 0 0 1 3877.82,161.79 L3877.82,67.79 A2.5,2.5 0 0 1 3880.32,65.29" fill="none" style="stroke:#000000;stroke-width:1.5;"/><line style="stroke:#000000;stroke-width:1.5;" x1="3877.82" x2="4059.3805" y1="87.5869" y2="87.5869"/><text fill="#000000" font-family="sans-serif" font-size="14" font-weight="bold" lengthAdjust="spacing" textLength="168.5605" x="3881.82" y="80.2851">admin_tools_common</text></g><!--cluster supabase--><g class="cluster" data-entity="supabase" data-source-line="32" data-uid="ent0040" id="cluster_supabase"><path d="M4088.32,65.29 L4164.3854,65.29 A3.75,3.75 0 0 1 4166.8854,67.79 L4173.8854,87.5869 L4174.32,87.5869 A2.5,2.5 0 0 1 4176.82,90.0869 L4176.82,161.79 A2.5,2.5 0 0 1 4174.32,164.29 L4088.32,164.29 A2.5,2.5 0 0 1 4085.82,161.79 L4085.82,67.79 A2.5,2.5 0 0 1 4088.32,65.29" fill="none" style="stroke:#000000;stroke-width:1.5;"/><line style="stroke:#000000;stroke-width:1.5;" x1="4085.82" x2="4173.8854" y1="87.5869" y2="87.5869"/><text fill="#000000" font-family="sans-serif" font-size="14" font-weight="bold" lengthAdjust="spacing" textLength="75.0654" x="4089.82" y="80.2851">supabase</text></g><!--cluster config--><g class="cluster" data-entity="config" data-source-line="33" data-uid="ent0042" id="cluster_config"><path d="M4203.32,65.29 L4253.1149,65.29 A3.75,3.75 0 0 1 4255.6149,67.79 L4262.6149,87.5869 L4274.32,87.5869 A2.5,2.5 0 0 1 4276.82,90.0869 L4276.82,161.79 A2.5,2.5 0 0 1 4274.32,164.29 L4203.32,164.29 A2.5,2.5 0 0 1 4200.82,161.79 L4200.82,67.79 A2.5,2.5 0 0 1 4203.32,65.29" fill="none" style="stroke:#000000;stroke-width:1.5;"/><line style="stroke:#000000;stroke-width:1.5;" x1="4200.82" x2="4262.6149" y1="87.5869" y2="87.5869"/><text fill="#000000" font-family="sans-serif" font-size="14" font-weight="bold" lengthAdjust="spacing" textLength="48.7949" x="4204.82" y="80.2851">config</text></g><!--cluster index--><g class="cluster" data-entity="index" data-source-line="36" data-uid="ent0044" id="cluster_index"><path d="M4420.32,65.29 L4464.6325,65.29 A3.75,3.75 0 0 1 4467.1325,67.79 L4474.1325,87.5869 L4511.32,87.5869 A2.5,2.5 0 0 1 4513.82,90.0869 L4513.82,161.79 A2.5,2.5 0 0 1 4511.32,164.29 L4420.32,164.29 A2.5,2.5 0 0 1 4417.82,161.79 L4417.82,67.79 A2.5,2.5 0 0 1 4420.32,65.29" fill="none" style="stroke:#000000;stroke-width:1.5;"/><line style="stroke:#000000;stroke-width:1.5;" x1="4417.82" x2="4474.1325" y1="87.5869" y2="87.5869"/><text fill="#000000" font-family="sans-serif" font-size="14" font-weight="bold" lengthAdjust="spacing" textLength="43.3125" x="4421.82" y="80.2851">index</text></g><!--cluster dashboard--><g class="cluster" data-entity="dashboard" data-source-line="36" data-uid="ent0045" id="cluster_dashboard"><path d="M4419.32,253.59 L4504.1013,253.59 A3.75,3.75 0 0 1 4506.6013,256.09 L4513.6013,275.8869 L4513.32,275.8869 A2.5,2.5 0 0 1 4515.82,278.3869 L4515.82,350.09 A2.5,2.5 0 0 1 4513.32,352.59 L4419.32,352.59 A2.5,2.5 0 0 1 4416.82,350.09 L4416.82,256.09 A2.5,2.5 0 0 1 4419.32,253.59" fill="none" style="stroke:#000000;stroke-width:1.5;"/><line style="stroke:#000000;stroke-width:1.5;" x1="4416.82" x2="4513.6013" y1="275.8869" y2="275.8869"/><text fill="#000000" font-family="sans-serif" font-size="14" font-weight="bold" lengthAdjust="spacing" textLength="83.7813" x="4420.82" y="268.5851">dashboard</text></g><!--cluster admin_tools_admins--><g class="cluster" data-entity="admin_tools_admins" data-source-line="37" data-uid="ent0049" id="cluster_admin_tools_admins"><path d="M3846.32,401.59 L4006.3581,401.59 A3.75,3.75 0 0 1 4008.8581,404.09 L4015.8581,423.8869 L4016.32,423.8869 A2.5,2.5 0 0 1 4018.82,426.3869 L4018.82,498.09 A2.5,2.5 0 0 1 4016.32,500.59 L3846.32,500.59 A2.5,2.5 0 0 1 3843.82,498.09 L3843.82,404.09 A2.5,2.5 0 0 1 3846.32,401.59" fill="none" style="stroke:#000000;stroke-width:1.5;"/><line style="stroke:#000000;stroke-width:1.5;" x1="3843.82" x2="4015.8581" y1="423.8869" y2="423.8869"/><text fill="#000000" font-family="sans-serif" font-size="14" font-weight="bold" lengthAdjust="spacing" textLength="159.0381" x="3847.82" y="416.5851">admin_tools_admins</text></g><!--cluster admin_tools_professors--><g class="cluster" data-entity="admin_tools_professors" data-source-line="38" data-uid="ent0052" id="cluster_admin_tools_professors"><path d="M4045.32,401.59 L4231.8542,401.59 A3.75,3.75 0 0 1 4234.3542,404.09 L4241.3542,423.8869 L4241.32,423.8869 A2.5,2.5 0 0 1 4243.82,426.3869 L4243.82,498.09 A2.5,2.5 0 0 1 4241.32,500.59 L4045.32,500.59 A2.5,2.5 0 0 1 4042.82,498.09 L4042.82,404.09 A2.5,2.5 0 0 1 4045.32,401.59" fill="none" style="stroke:#000000;stroke-width:1.5;"/><line style="stroke:#000000;stroke-width:1.5;" x1="4042.82" x2="4241.3542" y1="423.8869" y2="423.8869"/><text fill="#000000" font-family="sans-serif" font-size="14" font-weight="bold" lengthAdjust="spacing" textLength="185.5342" x="4046.82" y="416.5851">admin_tools_professors</text></g><!--cluster admin_tools_students--><g class="cluster" data-entity="admin_tools_students" data-source-line="39" data-uid="ent0055" id="cluster_admin_tools_students"><path d="M4270.32,401.59 L4442.7038,401.59 A3.75,3.75 0 0 1 4445.2038,404.09 L4452.2038,423.8869 L4452.32,423.8869 A2.5,2.5 0 0 1 4454.82,426.3869 L4454.82,498.09 A2.5,2.5 0 0 1 4452.32,500.59 L4270.32,500.59 A2.5,2.5 0 0 1 4267.82,498.09 L4267.82,404.09 A2.5,2.5 0 0 1 4270.32,401.59" fill="none" style="stroke:#000000;stroke-width:1.5;"/><line style="stroke:#000000;stroke-width:1.5;" x1="4267.82" x2="4452.2038" y1="423.8869" y2="423.8869"/><text fill="#000000" font-family="sans-serif" font-size="14" font-weight="bold" lengthAdjust="spacing" textLength="171.3838" x="4271.82" y="416.5851">admin_tools_students</text></g><!--cluster admin_tools_inactive_users--><g class="cluster" data-entity="admin_tools_inactive_users" data-source-line="40" data-uid="ent0058" id="cluster_admin_tools_inactive_users"><path d="M4481.32,401.59 L4696.8591,401.59 A3.75,3.75 0 0 1 4699.3591,404.09 L4706.3591,423.8869 L4706.32,423.8869 A2.5,2.5 0 0 1 4708.82,426.3869 L4708.82,498.09 A2.5,2.5 0 0 1 4706.32,500.59 L4481.32,500.59 A2.5,2.5 0 0 1 4478.82,498.09 L4478.82,404.09 A2.5,2.5 0 0 1 4481.32,401.59" fill="none" style="stroke:#000000;stroke-width:1.5;"/><line style="stroke:#000000;stroke-width:1.5;" x1="4478.82" x2="4706.3591" y1="423.8869" y2="423.8869"/><text fill="#000000" font-family="sans-serif" font-size="14" font-weight="bold" lengthAdjust="spacing" textLength="214.5391" x="4482.82" y="416.5851">admin_tools_inactive_users</text></g><!--cluster admin_tools_online_training--><g class="cluster" data-entity="admin_tools_online_training" data-source-line="41" data-uid="ent0061" id="cluster_admin_tools_online_training"><path d="M4735.32,401.59 L4956.444,401.59 A3.75,3.75 0 0 1 4958.944,404.09 L4965.944,423.8869 L4966.32,423.8869 A2.5,2.5 0 0 1 4968.82,426.3869 L4968.82,498.09 A2.5,2.5 0 0 1 4966.32,500.59 L4735.32,500.59 A2.5,2.5 0 0 1 4732.82,498.09 L4732.82,404.09 A2.5,2.5 0 0 1 4735.32,401.59" fill="none" style="stroke:#000000;stroke-width:1.5;"/><line style="stroke:#000000;stroke-width:1.5;" x1="4732.82" x2="4965.944" y1="423.8869" y2="423.8869"/><text fill="#000000" font-family="sans-serif" font-size="14" font-weight="bold" lengthAdjust="spacing" textLength="220.124" x="4736.82" y="416.5851">admin_tools_online_training</text></g><!--cluster admin_tool_courses--><g class="cluster" data-entity="admin_tool_courses" data-source-line="42" data-uid="ent0064" id="cluster_admin_tool_courses"><path d="M4995.32,401.59 L5150.819,401.59 A3.75,3.75 0 0 1 5153.319,404.09 L5160.319,423.8869 L5160.32,423.8869 A2.5,2.5 0 0 1 5162.82,426.3869 L5162.82,498.09 A2.5,2.5 0 0 1 5160.32,500.59 L4995.32,500.59 A2.5,2.5 0 0 1 4992.82,498.09 L4992.82,404.09 A2.5,2.5 0 0 1 4995.32,401.59" fill="none" style="stroke:#000000;stroke-width:1.5;"/><line style="stroke:#000000;stroke-width:1.5;" x1="4992.82" x2="5160.319" y1="423.8869" y2="423.8869"/><text fill="#000000" font-family="sans-serif" font-size="14" font-weight="bold" lengthAdjust="spacing" textLength="154.499" x="4996.82" y="416.5851">admin_tool_courses</text></g><!--cluster profile--><g class="cluster" data-entity="profile" data-source-line="44" data-uid="ent0067" id="cluster_profile"><path d="M120.32,65.29 L173.0475,65.29 A3.75,3.75 0 0 1 175.5475,67.79 L182.5475,87.5869 L211.32,87.5869 A2.5,2.5 0 0 1 213.82,90.0869 L213.82,161.79 A2.5,2.5 0 0 1 211.32,164.29 L120.32,164.29 A2.5,2.5 0 0 1 117.82,161.79 L117.82,67.79 A2.5,2.5 0 0 1 120.32,65.29" fill="none" style="stroke:#000000;stroke-width:1.5;"/><line style="stroke:#000000;stroke-width:1.5;" x1="117.82" x2="182.5475" y1="87.5869" y2="87.5869"/><text fill="#000000" font-family="sans-serif" font-size="14" font-weight="bold" lengthAdjust="spacing" textLength="51.7275" x="121.82" y="80.2851">profile</text></g><!--cluster supabase--><g class="cluster" data-entity="supabase" data-source-line="44" data-uid="ent0068" id="cluster_supabase"><path d="M322.32,253.59 L398.3854,253.59 A3.75,3.75 0 0 1 400.8854,256.09 L407.8854,275.8869 L408.32,275.8869 A2.5,2.5 0 0 1 410.82,278.3869 L410.82,350.09 A2.5,2.5 0 0 1 408.32,352.59 L322.32,352.59 A2.5,2.5 0 0 1 319.82,350.09 L319.82,256.09 A2.5,2.5 0 0 1 322.32,253.59" fill="none" style="stroke:#000000;stroke-width:1.5;"/><line style="stroke:#000000;stroke-width:1.5;" x1="319.82" x2="407.8854" y1="275.8869" y2="275.8869"/><text fill="#000000" font-family="sans-serif" font-size="14" font-weight="bold" lengthAdjust="spacing" textLength="75.0654" x="323.82" y="268.5851">supabase</text></g><!--cluster registro--><g class="cluster" data-entity="registro" data-source-line="45" data-uid="ent0072" id="cluster_registro"><path d="M245.32,65.29 L309.0876,65.29 A3.75,3.75 0 0 1 311.5876,67.79 L318.5876,87.5869 L336.32,87.5869 A2.5,2.5 0 0 1 338.82,90.0869 L338.82,161.79 A2.5,2.5 0 0 1 336.32,164.29 L245.32,164.29 A2.5,2.5 0 0 1 242.82,161.79 L242.82,67.79 A2.5,2.5 0 0 1 245.32,65.29" fill="none" style="stroke:#000000;stroke-width:1.5;"/><line style="stroke:#000000;stroke-width:1.5;" x1="242.82" x2="318.5876" y1="87.5869" y2="87.5869"/><text fill="#000000" font-family="sans-serif" font-size="14" font-weight="bold" lengthAdjust="spacing" textLength="62.7676" x="246.82" y="80.2851">registro</text></g><!--cluster admin_tools_common--><g class="cluster" data-entity="admin_tools_common" data-source-line="46" data-uid="ent0075" id="cluster_admin_tools_common"><path d="M399.32,65.29 L568.8805,65.29 A3.75,3.75 0 0 1 571.3805,67.79 L578.3805,87.5869 L578.32,87.5869 A2.5,2.5 0 0 1 580.82,90.0869 L580.82,161.79 A2.5,2.5 0 0 1 578.32,164.29 L399.32,164.29 A2.5,2.5 0 0 1 396.82,161.79 L396.82,67.79 A2.5,2.5 0 0 1 399.32,65.29" fill="none" style="stroke:#000000;stroke-width:1.5;"/><line style="stroke:#000000;stroke-width:1.5;" x1="396.82" x2="578.3805" y1="87.5869" y2="87.5869"/><text fill="#000000" font-family="sans-serif" font-size="14" font-weight="bold" lengthAdjust="spacing" textLength="168.5605" x="400.82" y="80.2851">admin_tools_common</text></g><!--cluster scripts--><g class="cluster" data-entity="scripts" data-source-line="48" data-uid="ent0078" id="cluster_scripts"><path d="M622.32,65.29 L676.7018,65.29 A3.75,3.75 0 0 1 679.2018,67.79 L686.2018,87.5869 L693.32,87.5869 A2.5,2.5 0 0 1 695.82,90.0869 L695.82,161.79 A2.5,2.5 0 0 1 693.32,164.29 L622.32,164.29 A2.5,2.5 0 0 1 619.82,161.79 L619.82,67.79 A2.5,2.5 0 0 1 622.32,65.29" fill="none" style="stroke:#000000;stroke-width:1.5;"/><line style="stroke:#000000;stroke-width:1.5;" x1="619.82" x2="686.2018" y1="87.5869" y2="87.5869"/><text fill="#000000" font-family="sans-serif" font-size="14" font-weight="bold" lengthAdjust="spacing" textLength="53.3818" x="623.82" y="80.2851">scripts</text></g><!--class images--><g class="entity" data-entity="images" data-source-line="27" data-uid="ent0031" id="entity_images"><rect fill="#F1F1F1" height="48" rx="2.5" ry="2.5" style="stroke:#181818;stroke-width:0.5;" width="82.9004" x="4295.37" y="100.29"/><ellipse cx="4310.37" cy="116.29" fill="#ADD1B2" rx="11" ry="11" style="stroke:#181818;stroke-width:1;"/><path d="M4313.3388,121.9306 Q4312.7606,122.2275 4312.12,122.3681 Q4311.4794,122.5244 4310.7763,122.5244 Q4308.2763,122.5244 4306.9481,120.8837 Q4305.6356,119.2275 4305.6356,116.1025 Q4305.6356,112.9775 4306.9481,111.3212 Q4308.2763,109.665 4310.7763,109.665 Q4311.4794,109.665 4312.12,109.8212 Q4312.7763,109.9775 4313.3388,110.2744 L4313.3388,112.9931 Q4312.7138,112.415 4312.12,112.1494 Q4311.5263,111.8681 4310.9013,111.8681 Q4309.5575,111.8681 4308.87,112.9462 Q4308.1825,114.0087 4308.1825,116.1025 Q4308.1825,118.1962 4308.87,119.2744 Q4309.5575,120.3369 4310.9013,120.3369 Q4311.5263,120.3369 4312.12,120.0712 Q4312.7138,119.79 4313.3388,119.2119 L4313.3388,121.9306 Z " fill="#000000"/><text fill="#000000" font-family="sans-serif" font-size="14" lengthAdjust="spacing" textLength="50.9004" x="4324.37" y="121.1367">images</text><line style="stroke:#181818;stroke-width:0.5;" x1="4296.37" x2="4377.2704" y1="132.29" y2="132.29"/><line style="stroke:#181818;stroke-width:0.5;" x1="4296.37" x2="4377.2704" y1="140.29" y2="140.29"/></g><!--class html--><g class="entity" data-entity="html" data-source-line="2" data-uid="ent0003" id="entity_html"><rect fill="#F1F1F1" height="80.5938" rx="2.5" ry="2.5" style="stroke:#181818;stroke-width:0.5;" width="108.4414" x="759.6" y="84"/><ellipse cx="794.6483" cy="100" fill="#ADD1B2" rx="11" ry="11" style="stroke:#181818;stroke-width:1;"/><path d="M797.617,105.6406 Q797.0389,105.9375 796.3983,106.0781 Q795.7577,106.2344 795.0545,106.2344 Q792.5545,106.2344 791.2264,104.5938 Q789.9139,102.9375 789.9139,99.8125 Q789.9139,96.6875 791.2264,95.0313 Q792.5545,93.375 795.0545,93.375 Q795.7577,93.375 796.3983,93.5313 Q797.0545,93.6875 797.617,93.9844 L797.617,96.7031 Q796.992,96.125 796.3983,95.8594 Q795.8045,95.5781 795.1795,95.5781 Q793.8358,95.5781 793.1483,96.6563 Q792.4608,97.7188 792.4608,99.8125 Q792.4608,101.9063 793.1483,102.9844 Q793.8358,104.0469 795.1795,104.0469 Q795.8045,104.0469 796.3983,103.7813 Q796.992,103.5 797.617,102.9219 L797.617,105.6406 Z " fill="#000000"/><text fill="#000000" font-family="sans-serif" font-size="14" lengthAdjust="spacing" textLength="31.8896" x="813.1035" y="104.8467">html</text><line style="stroke:#181818;stroke-width:0.5;" x1="760.6" x2="867.0414" y1="116" y2="116"/><ellipse cx="770.6" cy="129.6484" fill="none" rx="3" ry="3" style="stroke:#038048;stroke-width:1;"/><text fill="#000000" font-family="sans-serif" font-size="14" lengthAdjust="spacing" textLength="38.0146" x="779.6" y="132.9951">Login</text><ellipse cx="770.6" cy="145.9453" fill="none" rx="3" ry="3" style="stroke:#038048;stroke-width:1;"/><text fill="#000000" font-family="sans-serif" font-size="14" lengthAdjust="spacing" textLength="82.4414" x="779.6" y="149.292">Navegaci&#243;n</text><line style="stroke:#181818;stroke-width:0.5;" x1="760.6" x2="867.0414" y1="156.5938" y2="156.5938"/></g><!--class html--><g class="entity" data-entity="html" data-source-line="6" data-uid="ent0005" id="entity_html"><rect fill="#F1F1F1" height="80.5938" rx="2.5" ry="2.5" style="stroke:#181818;stroke-width:0.5;" width="141.8623" x="923.89" y="84"/><ellipse cx="974.6263" cy="100" fill="#ADD1B2" rx="11" ry="11" style="stroke:#181818;stroke-width:1;"/><path d="M977.5951,105.6406 Q977.017,105.9375 976.3763,106.0781 Q975.7357,106.2344 975.0326,106.2344 Q972.5326,106.2344 971.2045,104.5938 Q969.892,102.9375 969.892,99.8125 Q969.892,96.6875 971.2045,95.0313 Q972.5326,93.375 975.0326,93.375 Q975.7357,93.375 976.3763,93.5313 Q977.0326,93.6875 977.5951,93.9844 L977.5951,96.7031 Q976.9701,96.125 976.3763,95.8594 Q975.7826,95.5781 975.1576,95.5781 Q973.8138,95.5781 973.1263,96.6563 Q972.4388,97.7188 972.4388,99.8125 Q972.4388,101.9063 973.1263,102.9844 Q973.8138,104.0469 975.1576,104.0469 Q975.7826,104.0469 976.3763,103.7813 Q976.9701,103.5 977.5951,102.9219 L977.5951,105.6406 Z " fill="#000000"/><text fill="#000000" font-family="sans-serif" font-size="14" lengthAdjust="spacing" textLength="31.8896" x="995.1263" y="104.8467">html</text><line style="stroke:#181818;stroke-width:0.5;" x1="924.89" x2="1064.7523" y1="116" y2="116"/><ellipse cx="934.89" cy="129.6484" fill="none" rx="3" ry="3" style="stroke:#038048;stroke-width:1;"/><text fill="#000000" font-family="sans-serif" font-size="14" lengthAdjust="spacing" textLength="113.75" x="943.89" y="132.9951">Perfil de usuario</text><ellipse cx="934.89" cy="145.9453" fill="none" rx="3" ry="3" style="stroke:#038048;stroke-width:1;"/><text fill="#000000" font-family="sans-serif" font-size="14" lengthAdjust="spacing" textLength="115.8623" x="943.89" y="149.292">Edici&#243;n de datos</text><line style="stroke:#181818;stroke-width:0.5;" x1="924.89" x2="1064.7523" y1="156.5938" y2="156.5938"/></g><!--class js--><g class="entity" data-entity="js" data-source-line="30" data-uid="ent0036" id="entity_js"><rect fill="#F1F1F1" height="48" rx="2.5" ry="2.5" style="stroke:#181818;stroke-width:0.5;" width="43.1836" x="1101.23" y="100.29"/><ellipse cx="1116.23" cy="116.29" fill="#ADD1B2" rx="11" ry="11" style="stroke:#181818;stroke-width:1;"/><path d="M1119.1988,121.9306 Q1118.6206,122.2275 1117.98,122.3681 Q1117.3394,122.5244 1116.6363,122.5244 Q1114.1363,122.5244 1112.8081,120.8837 Q1111.4956,119.2275 1111.4956,116.1025 Q1111.4956,112.9775 1112.8081,111.3212 Q1114.1363,109.665 1116.6363,109.665 Q1117.3394,109.665 1117.98,109.8212 Q1118.6363,109.9775 1119.1988,110.2744 L1119.1988,112.9931 Q1118.5738,112.415 1117.98,112.1494 Q1117.3863,111.8681 1116.7613,111.8681 Q1115.4175,111.8681 1114.73,112.9462 Q1114.0425,114.0087 1114.0425,116.1025 Q1114.0425,118.1962 1114.73,119.2744 Q1115.4175,120.3369 1116.7613,120.3369 Q1117.3863,120.3369 1117.98,120.0712 Q1118.5738,119.79 1119.1988,119.2119 L1119.1988,121.9306 Z " fill="#000000"/><text fill="#000000" font-family="sans-serif" font-size="14" lengthAdjust="spacing" textLength="11.1836" x="1130.23" y="121.1367">js</text><line style="stroke:#181818;stroke-width:0.5;" x1="1102.23" x2="1143.4136" y1="132.29" y2="132.29"/><line style="stroke:#181818;stroke-width:0.5;" x1="1102.23" x2="1143.4136" y1="140.29" y2="140.29"/></g><!--class html--><g class="entity" data-entity="html" data-source-line="10" data-uid="ent0007" id="entity_html"><rect fill="#F1F1F1" height="64.2969" rx="2.5" ry="2.5" style="stroke:#181818;stroke-width:0.5;" width="162.4521" x="1200.6" y="92.14"/><ellipse cx="1261.6313" cy="108.14" fill="#ADD1B2" rx="11" ry="11" style="stroke:#181818;stroke-width:1;"/><path d="M1264.6,113.7806 Q1264.0219,114.0775 1263.3813,114.2181 Q1262.7406,114.3744 1262.0375,114.3744 Q1259.5375,114.3744 1258.2094,112.7337 Q1256.8969,111.0775 1256.8969,107.9525 Q1256.8969,104.8275 1258.2094,103.1712 Q1259.5375,101.515 1262.0375,101.515 Q1262.7406,101.515 1263.3813,101.6712 Q1264.0375,101.8275 1264.6,102.1244 L1264.6,104.8431 Q1263.975,104.265 1263.3813,103.9994 Q1262.7875,103.7181 1262.1625,103.7181 Q1260.8188,103.7181 1260.1313,104.7962 Q1259.4438,105.8587 1259.4438,107.9525 Q1259.4438,110.0462 1260.1313,111.1244 Q1260.8188,112.1869 1262.1625,112.1869 Q1262.7875,112.1869 1263.3813,111.9212 Q1263.975,111.64 1264.6,111.0619 L1264.6,113.7806 Z " fill="#000000"/><text fill="#000000" font-family="sans-serif" font-size="14" lengthAdjust="spacing" textLength="31.8896" x="1282.1313" y="112.9867">html</text><line style="stroke:#181818;stroke-width:0.5;" x1="1201.6" x2="1362.0521" y1="124.14" y2="124.14"/><ellipse cx="1211.6" cy="137.7884" fill="none" rx="3" ry="3" style="stroke:#038048;stroke-width:1;"/><text fill="#000000" font-family="sans-serif" font-size="14" lengthAdjust="spacing" textLength="136.4521" x="1220.6" y="141.1351">Registro de usuario</text><line style="stroke:#181818;stroke-width:0.5;" x1="1201.6" x2="1362.0521" y1="148.4369" y2="148.4369"/></g><!--class html--><g class="entity" data-entity="html" data-source-line="13" data-uid="ent0009" id="entity_html"><rect fill="#F1F1F1" height="80.5938" rx="2.5" ry="2.5" style="stroke:#181818;stroke-width:0.5;" width="235.1934" x="1419.23" y="84"/><ellipse cx="1516.6319" cy="100" fill="#ADD1B2" rx="11" ry="11" style="stroke:#181818;stroke-width:1;"/><path d="M1519.6006,105.6406 Q1519.0225,105.9375 1518.3819,106.0781 Q1517.7412,106.2344 1517.0381,106.2344 Q1514.5381,106.2344 1513.21,104.5938 Q1511.8975,102.9375 1511.8975,99.8125 Q1511.8975,96.6875 1513.21,95.0313 Q1514.5381,93.375 1517.0381,93.375 Q1517.7412,93.375 1518.3819,93.5313 Q1519.0381,93.6875 1519.6006,93.9844 L1519.6006,96.7031 Q1518.9756,96.125 1518.3819,95.8594 Q1517.7881,95.5781 1517.1631,95.5781 Q1515.8194,95.5781 1515.1319,96.6563 Q1514.4444,97.7188 1514.4444,99.8125 Q1514.4444,101.9063 1515.1319,102.9844 Q1515.8194,104.0469 1517.1631,104.0469 Q1517.7881,104.0469 1518.3819,103.7813 Q1518.9756,103.5 1519.6006,102.9219 L1519.6006,105.6406 Z " fill="#000000"/><text fill="#000000" font-family="sans-serif" font-size="14" lengthAdjust="spacing" textLength="31.8896" x="1537.1319" y="104.8467">html</text><line style="stroke:#181818;stroke-width:0.5;" x1="1420.23" x2="1653.4234" y1="116" y2="116"/><ellipse cx="1430.23" cy="129.6484" fill="none" rx="3" ry="3" style="stroke:#038048;stroke-width:1;"/><text fill="#000000" font-family="sans-serif" font-size="14" lengthAdjust="spacing" textLength="103.1953" x="1439.23" y="132.9951">Panel principal</text><ellipse cx="1430.23" cy="145.9453" fill="none" rx="3" ry="3" style="stroke:#038048;stroke-width:1;"/><text fill="#000000" font-family="sans-serif" font-size="14" lengthAdjust="spacing" textLength="209.1934" x="1439.23" y="149.292">Acceso a herramientas admin</text><line style="stroke:#181818;stroke-width:0.5;" x1="1420.23" x2="1653.4234" y1="156.5938" y2="156.5938"/></g><!--class html--><g class="entity" data-entity="html" data-source-line="17" data-uid="ent0011" id="entity_html"><rect fill="#F1F1F1" height="48" rx="2.5" ry="2.5" style="stroke:#181818;stroke-width:0.5;" width="63.8896" x="1749.88" y="100.29"/><ellipse cx="1764.88" cy="116.29" fill="#ADD1B2" rx="11" ry="11" style="stroke:#181818;stroke-width:1;"/><path d="M1767.8488,121.9306 Q1767.2706,122.2275 1766.63,122.3681 Q1765.9894,122.5244 1765.2863,122.5244 Q1762.7863,122.5244 1761.4581,120.8837 Q1760.1456,119.2275 1760.1456,116.1025 Q1760.1456,112.9775 1761.4581,111.3212 Q1762.7863,109.665 1765.2863,109.665 Q1765.9894,109.665 1766.63,109.8212 Q1767.2863,109.9775 1767.8488,110.2744 L1767.8488,112.9931 Q1767.2238,112.415 1766.63,112.1494 Q1766.0363,111.8681 1765.4113,111.8681 Q1764.0675,111.8681 1763.38,112.9462 Q1762.6925,114.0087 1762.6925,116.1025 Q1762.6925,118.1962 1763.38,119.2744 Q1764.0675,120.3369 1765.4113,120.3369 Q1766.0363,120.3369 1766.63,120.0712 Q1767.2238,119.79 1767.8488,119.2119 L1767.8488,121.9306 Z " fill="#000000"/><text fill="#000000" font-family="sans-serif" font-size="14" lengthAdjust="spacing" textLength="31.8896" x="1778.88" y="121.1367">html</text><line style="stroke:#181818;stroke-width:0.5;" x1="1750.88" x2="1812.7696" y1="132.29" y2="132.29"/><line style="stroke:#181818;stroke-width:0.5;" x1="1750.88" x2="1812.7696" y1="140.29" y2="140.29"/></g><!--class html--><g class="entity" data-entity="html" data-source-line="18" data-uid="ent0013" id="entity_html"><rect fill="#F1F1F1" height="48" rx="2.5" ry="2.5" style="stroke:#181818;stroke-width:0.5;" width="63.8896" x="1961.88" y="100.29"/><ellipse cx="1976.88" cy="116.29" fill="#ADD1B2" rx="11" ry="11" style="stroke:#181818;stroke-width:1;"/><path d="M1979.8488,121.9306 Q1979.2706,122.2275 1978.63,122.3681 Q1977.9894,122.5244 1977.2863,122.5244 Q1974.7863,122.5244 1973.4581,120.8837 Q1972.1456,119.2275 1972.1456,116.1025 Q1972.1456,112.9775 1973.4581,111.3212 Q1974.7863,109.665 1977.2863,109.665 Q1977.9894,109.665 1978.63,109.8212 Q1979.2863,109.9775 1979.8488,110.2744 L1979.8488,112.9931 Q1979.2238,112.415 1978.63,112.1494 Q1978.0363,111.8681 1977.4113,111.8681 Q1976.0675,111.8681 1975.38,112.9462 Q1974.6925,114.0087 1974.6925,116.1025 Q1974.6925,118.1962 1975.38,119.2744 Q1976.0675,120.3369 1977.4113,120.3369 Q1978.0363,120.3369 1978.63,120.0712 Q1979.2238,119.79 1979.8488,119.2119 L1979.8488,121.9306 Z " fill="#000000"/><text fill="#000000" font-family="sans-serif" font-size="14" lengthAdjust="spacing" textLength="31.8896" x="1990.88" y="121.1367">html</text><line style="stroke:#181818;stroke-width:0.5;" x1="1962.88" x2="2024.7696" y1="132.29" y2="132.29"/><line style="stroke:#181818;stroke-width:0.5;" x1="1962.88" x2="2024.7696" y1="140.29" y2="140.29"/></g><!--class html--><g class="entity" data-entity="html" data-source-line="19" data-uid="ent0015" id="entity_html"><rect fill="#F1F1F1" height="48" rx="2.5" ry="2.5" style="stroke:#181818;stroke-width:0.5;" width="63.8896" x="2179.88" y="100.29"/><ellipse cx="2194.88" cy="116.29" fill="#ADD1B2" rx="11" ry="11" style="stroke:#181818;stroke-width:1;"/><path d="M2197.8488,121.9306 Q2197.2706,122.2275 2196.63,122.3681 Q2195.9894,122.5244 2195.2863,122.5244 Q2192.7863,122.5244 2191.4581,120.8837 Q2190.1456,119.2275 2190.1456,116.1025 Q2190.1456,112.9775 2191.4581,111.3212 Q2192.7863,109.665 2195.2863,109.665 Q2195.9894,109.665 2196.63,109.8212 Q2197.2863,109.9775 2197.8488,110.2744 L2197.8488,112.9931 Q2197.2238,112.415 2196.63,112.1494 Q2196.0363,111.8681 2195.4113,111.8681 Q2194.0675,111.8681 2193.38,112.9462 Q2192.6925,114.0087 2192.6925,116.1025 Q2192.6925,118.1962 2193.38,119.2744 Q2194.0675,120.3369 2195.4113,120.3369 Q2196.0363,120.3369 2196.63,120.0712 Q2197.2238,119.79 2197.8488,119.2119 L2197.8488,121.9306 Z " fill="#000000"/><text fill="#000000" font-family="sans-serif" font-size="14" lengthAdjust="spacing" textLength="31.8896" x="2208.88" y="121.1367">html</text><line style="stroke:#181818;stroke-width:0.5;" x1="2180.88" x2="2242.7696" y1="132.29" y2="132.29"/><line style="stroke:#181818;stroke-width:0.5;" x1="2180.88" x2="2242.7696" y1="140.29" y2="140.29"/></g><!--class html--><g class="entity" data-entity="html" data-source-line="20" data-uid="ent0017" id="entity_html"><rect fill="#F1F1F1" height="48" rx="2.5" ry="2.5" style="stroke:#181818;stroke-width:0.5;" width="63.8896" x="2412.88" y="100.29"/><ellipse cx="2427.88" cy="116.29" fill="#ADD1B2" rx="11" ry="11" style="stroke:#181818;stroke-width:1;"/><path d="M2430.8488,121.9306 Q2430.2706,122.2275 2429.63,122.3681 Q2428.9894,122.5244 2428.2863,122.5244 Q2425.7863,122.5244 2424.4581,120.8837 Q2423.1456,119.2275 2423.1456,116.1025 Q2423.1456,112.9775 2424.4581,111.3212 Q2425.7863,109.665 2428.2863,109.665 Q2428.9894,109.665 2429.63,109.8212 Q2430.2863,109.9775 2430.8488,110.2744 L2430.8488,112.9931 Q2430.2238,112.415 2429.63,112.1494 Q2429.0363,111.8681 2428.4113,111.8681 Q2427.0675,111.8681 2426.38,112.9462 Q2425.6925,114.0087 2425.6925,116.1025 Q2425.6925,118.1962 2426.38,119.2744 Q2427.0675,120.3369 2428.4113,120.3369 Q2429.0363,120.3369 2429.63,120.0712 Q2430.2238,119.79 2430.8488,119.2119 L2430.8488,121.9306 Z " fill="#000000"/><text fill="#000000" font-family="sans-serif" font-size="14" lengthAdjust="spacing" textLength="31.8896" x="2441.88" y="121.1367">html</text><line style="stroke:#181818;stroke-width:0.5;" x1="2413.88" x2="2475.7696" y1="132.29" y2="132.29"/><line style="stroke:#181818;stroke-width:0.5;" x1="2413.88" x2="2475.7696" y1="140.29" y2="140.29"/></g><!--class html--><g class="entity" data-entity="html" data-source-line="21" data-uid="ent0019" id="entity_html"><rect fill="#F1F1F1" height="48" rx="2.5" ry="2.5" style="stroke:#181818;stroke-width:0.5;" width="63.8896" x="2669.88" y="100.29"/><ellipse cx="2684.88" cy="116.29" fill="#ADD1B2" rx="11" ry="11" style="stroke:#181818;stroke-width:1;"/><path d="M2687.8488,121.9306 Q2687.2706,122.2275 2686.63,122.3681 Q2685.9894,122.5244 2685.2863,122.5244 Q2682.7863,122.5244 2681.4581,120.8837 Q2680.1456,119.2275 2680.1456,116.1025 Q2680.1456,112.9775 2681.4581,111.3212 Q2682.7863,109.665 2685.2863,109.665 Q2685.9894,109.665 2686.63,109.8212 Q2687.2863,109.9775 2687.8488,110.2744 L2687.8488,112.9931 Q2687.2238,112.415 2686.63,112.1494 Q2686.0363,111.8681 2685.4113,111.8681 Q2684.0675,111.8681 2683.38,112.9462 Q2682.6925,114.0087 2682.6925,116.1025 Q2682.6925,118.1962 2683.38,119.2744 Q2684.0675,120.3369 2685.4113,120.3369 Q2686.0363,120.3369 2686.63,120.0712 Q2687.2238,119.79 2687.8488,119.2119 L2687.8488,121.9306 Z " fill="#000000"/><text fill="#000000" font-family="sans-serif" font-size="14" lengthAdjust="spacing" textLength="31.8896" x="2698.88" y="121.1367">html</text><line style="stroke:#181818;stroke-width:0.5;" x1="2670.88" x2="2732.7696" y1="132.29" y2="132.29"/><line style="stroke:#181818;stroke-width:0.5;" x1="2670.88" x2="2732.7696" y1="140.29" y2="140.29"/></g><!--class html--><g class="entity" data-entity="html" data-source-line="22" data-uid="ent0021" id="entity_html"><rect fill="#F1F1F1" height="48" rx="2.5" ry="2.5" style="stroke:#181818;stroke-width:0.5;" width="63.8896" x="2896.88" y="100.29"/><ellipse cx="2911.88" cy="116.29" fill="#ADD1B2" rx="11" ry="11" style="stroke:#181818;stroke-width:1;"/><path d="M2914.8488,121.9306 Q2914.2706,122.2275 2913.63,122.3681 Q2912.9894,122.5244 2912.2863,122.5244 Q2909.7863,122.5244 2908.4581,120.8837 Q2907.1456,119.2275 2907.1456,116.1025 Q2907.1456,112.9775 2908.4581,111.3212 Q2909.7863,109.665 2912.2863,109.665 Q2912.9894,109.665 2913.63,109.8212 Q2914.2863,109.9775 2914.8488,110.2744 L2914.8488,112.9931 Q2914.2238,112.415 2913.63,112.1494 Q2913.0363,111.8681 2912.4113,111.8681 Q2911.0675,111.8681 2910.38,112.9462 Q2909.6925,114.0087 2909.6925,116.1025 Q2909.6925,118.1962 2910.38,119.2744 Q2911.0675,120.3369 2912.4113,120.3369 Q2913.0363,120.3369 2913.63,120.0712 Q2914.2238,119.79 2914.8488,119.2119 L2914.8488,121.9306 Z " fill="#000000"/><text fill="#000000" font-family="sans-serif" font-size="14" lengthAdjust="spacing" textLength="31.8896" x="2925.88" y="121.1367">html</text><line style="stroke:#181818;stroke-width:0.5;" x1="2897.88" x2="2959.7696" y1="132.29" y2="132.29"/><line style="stroke:#181818;stroke-width:0.5;" x1="2897.88" x2="2959.7696" y1="140.29" y2="140.29"/></g><!--class html--><g class="entity" data-entity="html" data-source-line="23" data-uid="ent0023" id="entity_html"><rect fill="#F1F1F1" height="48" rx="2.5" ry="2.5" style="stroke:#181818;stroke-width:0.5;" width="63.8896" x="3093.88" y="100.29"/><ellipse cx="3108.88" cy="116.29" fill="#ADD1B2" rx="11" ry="11" style="stroke:#181818;stroke-width:1;"/><path d="M3111.8488,121.9306 Q3111.2706,122.2275 3110.63,122.3681 Q3109.9894,122.5244 3109.2863,122.5244 Q3106.7863,122.5244 3105.4581,120.8837 Q3104.1456,119.2275 3104.1456,116.1025 Q3104.1456,112.9775 3105.4581,111.3212 Q3106.7863,109.665 3109.2863,109.665 Q3109.9894,109.665 3110.63,109.8212 Q3111.2863,109.9775 3111.8488,110.2744 L3111.8488,112.9931 Q3111.2238,112.415 3110.63,112.1494 Q3110.0363,111.8681 3109.4113,111.8681 Q3108.0675,111.8681 3107.38,112.9462 Q3106.6925,114.0087 3106.6925,116.1025 Q3106.6925,118.1962 3107.38,119.2744 Q3108.0675,120.3369 3109.4113,120.3369 Q3110.0363,120.3369 3110.63,120.0712 Q3111.2238,119.79 3111.8488,119.2119 L3111.8488,121.9306 Z " fill="#000000"/><text fill="#000000" font-family="sans-serif" font-size="14" lengthAdjust="spacing" textLength="31.8896" x="3122.88" y="121.1367">html</text><line style="stroke:#181818;stroke-width:0.5;" x1="3094.88" x2="3156.7696" y1="132.29" y2="132.29"/><line style="stroke:#181818;stroke-width:0.5;" x1="3094.88" x2="3156.7696" y1="140.29" y2="140.29"/></g><!--class html--><g class="entity" data-entity="html" data-source-line="24" data-uid="ent0025" id="entity_html"><rect fill="#F1F1F1" height="48" rx="2.5" ry="2.5" style="stroke:#181818;stroke-width:0.5;" width="63.8896" x="3266.88" y="100.29"/><ellipse cx="3281.88" cy="116.29" fill="#ADD1B2" rx="11" ry="11" style="stroke:#181818;stroke-width:1;"/><path d="M3284.8488,121.9306 Q3284.2706,122.2275 3283.63,122.3681 Q3282.9894,122.5244 3282.2863,122.5244 Q3279.7863,122.5244 3278.4581,120.8837 Q3277.1456,119.2275 3277.1456,116.1025 Q3277.1456,112.9775 3278.4581,111.3212 Q3279.7863,109.665 3282.2863,109.665 Q3282.9894,109.665 3283.63,109.8212 Q3284.2863,109.9775 3284.8488,110.2744 L3284.8488,112.9931 Q3284.2238,112.415 3283.63,112.1494 Q3283.0363,111.8681 3282.4113,111.8681 Q3281.0675,111.8681 3280.38,112.9462 Q3279.6925,114.0087 3279.6925,116.1025 Q3279.6925,118.1962 3280.38,119.2744 Q3281.0675,120.3369 3282.4113,120.3369 Q3283.0363,120.3369 3283.63,120.0712 Q3284.2238,119.79 3284.8488,119.2119 L3284.8488,121.9306 Z " fill="#000000"/><text fill="#000000" font-family="sans-serif" font-size="14" lengthAdjust="spacing" textLength="31.8896" x="3295.88" y="121.1367">html</text><line style="stroke:#181818;stroke-width:0.5;" x1="3267.88" x2="3329.7696" y1="132.29" y2="132.29"/><line style="stroke:#181818;stroke-width:0.5;" x1="3267.88" x2="3329.7696" y1="140.29" y2="140.29"/></g><!--class html--><g class="entity" data-entity="html" data-source-line="25" data-uid="ent0027" id="entity_html"><rect fill="#F1F1F1" height="48" rx="2.5" ry="2.5" style="stroke:#181818;stroke-width:0.5;" width="63.8896" x="3420.88" y="100.29"/><ellipse cx="3435.88" cy="116.29" fill="#ADD1B2" rx="11" ry="11" style="stroke:#181818;stroke-width:1;"/><path d="M3438.8488,121.9306 Q3438.2706,122.2275 3437.63,122.3681 Q3436.9894,122.5244 3436.2863,122.5244 Q3433.7863,122.5244 3432.4581,120.8837 Q3431.1456,119.2275 3431.1456,116.1025 Q3431.1456,112.9775 3432.4581,111.3212 Q3433.7863,109.665 3436.2863,109.665 Q3436.9894,109.665 3437.63,109.8212 Q3438.2863,109.9775 3438.8488,110.2744 L3438.8488,112.9931 Q3438.2238,112.415 3437.63,112.1494 Q3437.0363,111.8681 3436.4113,111.8681 Q3435.0675,111.8681 3434.38,112.9462 Q3433.6925,114.0087 3433.6925,116.1025 Q3433.6925,118.1962 3434.38,119.2744 Q3435.0675,120.3369 3436.4113,120.3369 Q3437.0363,120.3369 3437.63,120.0712 Q3438.2238,119.79 3438.8488,119.2119 L3438.8488,121.9306 Z " fill="#000000"/><text fill="#000000" font-family="sans-serif" font-size="14" lengthAdjust="spacing" textLength="31.8896" x="3449.88" y="121.1367">html</text><line style="stroke:#181818;stroke-width:0.5;" x1="3421.88" x2="3483.7696" y1="132.29" y2="132.29"/><line style="stroke:#181818;stroke-width:0.5;" x1="3421.88" x2="3483.7696" y1="140.29" y2="140.29"/></g><!--class html--><g class="entity" data-entity="html" data-source-line="26" data-uid="ent0029" id="entity_html"><rect fill="#F1F1F1" height="48" rx="2.5" ry="2.5" style="stroke:#181818;stroke-width:0.5;" width="63.8896" x="3563.88" y="100.29"/><ellipse cx="3578.88" cy="116.29" fill="#ADD1B2" rx="11" ry="11" style="stroke:#181818;stroke-width:1;"/><path d="M3581.8488,121.9306 Q3581.2706,122.2275 3580.63,122.3681 Q3579.9894,122.5244 3579.2863,122.5244 Q3576.7863,122.5244 3575.4581,120.8837 Q3574.1456,119.2275 3574.1456,116.1025 Q3574.1456,112.9775 3575.4581,111.3212 Q3576.7863,109.665 3579.2863,109.665 Q3579.9894,109.665 3580.63,109.8212 Q3581.2863,109.9775 3581.8488,110.2744 L3581.8488,112.9931 Q3581.2238,112.415 3580.63,112.1494 Q3580.0363,111.8681 3579.4113,111.8681 Q3578.0675,111.8681 3577.38,112.9462 Q3576.6925,114.0087 3576.6925,116.1025 Q3576.6925,118.1962 3577.38,119.2744 Q3578.0675,120.3369 3579.4113,120.3369 Q3580.0363,120.3369 3580.63,120.0712 Q3581.2238,119.79 3581.8488,119.2119 L3581.8488,121.9306 Z " fill="#000000"/><text fill="#000000" font-family="sans-serif" font-size="14" lengthAdjust="spacing" textLength="31.8896" x="3592.88" y="121.1367">html</text><line style="stroke:#181818;stroke-width:0.5;" x1="3564.88" x2="3626.7696" y1="132.29" y2="132.29"/><line style="stroke:#181818;stroke-width:0.5;" x1="3564.88" x2="3626.7696" y1="140.29" y2="140.29"/></g><!--class css--><g class="entity" data-entity="css" data-source-line="28" data-uid="ent0032" id="entity_css"><rect fill="#F1F1F1" height="48" rx="2.5" ry="2.5" style="stroke:#181818;stroke-width:0.5;" width="54.2852" x="3683.68" y="100.29"/><ellipse cx="3698.68" cy="116.29" fill="#ADD1B2" rx="11" ry="11" style="stroke:#181818;stroke-width:1;"/><path d="M3701.6488,121.9306 Q3701.0706,122.2275 3700.43,122.3681 Q3699.7894,122.5244 3699.0863,122.5244 Q3696.5863,122.5244 3695.2581,120.8837 Q3693.9456,119.2275 3693.9456,116.1025 Q3693.9456,112.9775 3695.2581,111.3212 Q3696.5863,109.665 3699.0863,109.665 Q3699.7894,109.665 3700.43,109.8212 Q3701.0863,109.9775 3701.6488,110.2744 L3701.6488,112.9931 Q3701.0238,112.415 3700.43,112.1494 Q3699.8363,111.8681 3699.2113,111.8681 Q3697.8675,111.8681 3697.18,112.9462 Q3696.4925,114.0087 3696.4925,116.1025 Q3696.4925,118.1962 3697.18,119.2744 Q3697.8675,120.3369 3699.2113,120.3369 Q3699.8363,120.3369 3700.43,120.0712 Q3701.0238,119.79 3701.6488,119.2119 L3701.6488,121.9306 Z " fill="#000000"/><text fill="#000000" font-family="sans-serif" font-size="14" lengthAdjust="spacing" textLength="22.2852" x="3712.68" y="121.1367">css</text><line style="stroke:#181818;stroke-width:0.5;" x1="3684.68" x2="3736.9652" y1="132.29" y2="132.29"/><line style="stroke:#181818;stroke-width:0.5;" x1="3684.68" x2="3736.9652" y1="140.29" y2="140.29"/></g><!--class js--><g class="entity" data-entity="js" data-source-line="29" data-uid="ent0034" id="entity_js"><rect fill="#F1F1F1" height="48" rx="2.5" ry="2.5" style="stroke:#181818;stroke-width:0.5;" width="43.1836" x="3794.23" y="100.29"/><ellipse cx="3809.23" cy="116.29" fill="#ADD1B2" rx="11" ry="11" style="stroke:#181818;stroke-width:1;"/><path d="M3812.1988,121.9306 Q3811.6206,122.2275 3810.98,122.3681 Q3810.3394,122.5244 3809.6363,122.5244 Q3807.1363,122.5244 3805.8081,120.8837 Q3804.4956,119.2275 3804.4956,116.1025 Q3804.4956,112.9775 3805.8081,111.3212 Q3807.1363,109.665 3809.6363,109.665 Q3810.3394,109.665 3810.98,109.8212 Q3811.6363,109.9775 3812.1988,110.2744 L3812.1988,112.9931 Q3811.5738,112.415 3810.98,112.1494 Q3810.3863,111.8681 3809.7613,111.8681 Q3808.4175,111.8681 3807.73,112.9462 Q3807.0425,114.0087 3807.0425,116.1025 Q3807.0425,118.1962 3807.73,119.2744 Q3808.4175,120.3369 3809.7613,120.3369 Q3810.3863,120.3369 3810.98,120.0712 Q3811.5738,119.79 3812.1988,119.2119 L3812.1988,121.9306 Z " fill="#000000"/><text fill="#000000" font-family="sans-serif" font-size="14" lengthAdjust="spacing" textLength="11.1836" x="3823.23" y="121.1367">js</text><line style="stroke:#181818;stroke-width:0.5;" x1="3795.23" x2="3836.4136" y1="132.29" y2="132.29"/><line style="stroke:#181818;stroke-width:0.5;" x1="3795.23" x2="3836.4136" y1="140.29" y2="140.29"/></g><!--class js--><g class="entity" data-entity="js" data-source-line="31" data-uid="ent0037" id="entity_js"><rect fill="#F1F1F1" height="48" rx="2.5" ry="2.5" style="stroke:#181818;stroke-width:0.5;" width="43.1836" x="3948.23" y="100.29"/><ellipse cx="3963.23" cy="116.29" fill="#ADD1B2" rx="11" ry="11" style="stroke:#181818;stroke-width:1;"/><path d="M3966.1988,121.9306 Q3965.6206,122.2275 3964.98,122.3681 Q3964.3394,122.5244 3963.6363,122.5244 Q3961.1363,122.5244 3959.8081,120.8837 Q3958.4956,119.2275 3958.4956,116.1025 Q3958.4956,112.9775 3959.8081,111.3212 Q3961.1363,109.665 3963.6363,109.665 Q3964.3394,109.665 3964.98,109.8212 Q3965.6363,109.9775 3966.1988,110.2744 L3966.1988,112.9931 Q3965.5738,112.415 3964.98,112.1494 Q3964.3863,111.8681 3963.7613,111.8681 Q3962.4175,111.8681 3961.73,112.9462 Q3961.0425,114.0087 3961.0425,116.1025 Q3961.0425,118.1962 3961.73,119.2744 Q3962.4175,120.3369 3963.7613,120.3369 Q3964.3863,120.3369 3964.98,120.0712 Q3965.5738,119.79 3966.1988,119.2119 L3966.1988,121.9306 Z " fill="#000000"/><text fill="#000000" font-family="sans-serif" font-size="14" lengthAdjust="spacing" textLength="11.1836" x="3977.23" y="121.1367">js</text><line style="stroke:#181818;stroke-width:0.5;" x1="3949.23" x2="3990.4136" y1="132.29" y2="132.29"/><line style="stroke:#181818;stroke-width:0.5;" x1="3949.23" x2="3990.4136" y1="140.29" y2="140.29"/></g><!--class js--><g class="entity" data-entity="js" data-source-line="32" data-uid="ent0039" id="entity_js"><rect fill="#F1F1F1" height="48" rx="2.5" ry="2.5" style="stroke:#181818;stroke-width:0.5;" width="43.1836" x="4109.23" y="100.29"/><ellipse cx="4124.23" cy="116.29" fill="#ADD1B2" rx="11" ry="11" style="stroke:#181818;stroke-width:1;"/><path d="M4127.1988,121.9306 Q4126.6206,122.2275 4125.98,122.3681 Q4125.3394,122.5244 4124.6363,122.5244 Q4122.1363,122.5244 4120.8081,120.8837 Q4119.4956,119.2275 4119.4956,116.1025 Q4119.4956,112.9775 4120.8081,111.3212 Q4122.1363,109.665 4124.6363,109.665 Q4125.3394,109.665 4125.98,109.8212 Q4126.6363,109.9775 4127.1988,110.2744 L4127.1988,112.9931 Q4126.5738,112.415 4125.98,112.1494 Q4125.3863,111.8681 4124.7613,111.8681 Q4123.4175,111.8681 4122.73,112.9462 Q4122.0425,114.0087 4122.0425,116.1025 Q4122.0425,118.1962 4122.73,119.2744 Q4123.4175,120.3369 4124.7613,120.3369 Q4125.3863,120.3369 4125.98,120.0712 Q4126.5738,119.79 4127.1988,119.2119 L4127.1988,121.9306 Z " fill="#000000"/><text fill="#000000" font-family="sans-serif" font-size="14" lengthAdjust="spacing" textLength="11.1836" x="4138.23" y="121.1367">js</text><line style="stroke:#181818;stroke-width:0.5;" x1="4110.23" x2="4151.4136" y1="132.29" y2="132.29"/><line style="stroke:#181818;stroke-width:0.5;" x1="4110.23" x2="4151.4136" y1="140.29" y2="140.29"/></g><!--class js--><g class="entity" data-entity="js" data-source-line="33" data-uid="ent0041" id="entity_js"><rect fill="#F1F1F1" height="48" rx="2.5" ry="2.5" style="stroke:#181818;stroke-width:0.5;" width="43.1836" x="4217.23" y="100.29"/><ellipse cx="4232.23" cy="116.29" fill="#ADD1B2" rx="11" ry="11" style="stroke:#181818;stroke-width:1;"/><path d="M4235.1988,121.9306 Q4234.6206,122.2275 4233.98,122.3681 Q4233.3394,122.5244 4232.6363,122.5244 Q4230.1363,122.5244 4228.8081,120.8837 Q4227.4956,119.2275 4227.4956,116.1025 Q4227.4956,112.9775 4228.8081,111.3212 Q4230.1363,109.665 4232.6363,109.665 Q4233.3394,109.665 4233.98,109.8212 Q4234.6363,109.9775 4235.1988,110.2744 L4235.1988,112.9931 Q4234.5738,112.415 4233.98,112.1494 Q4233.3863,111.8681 4232.7613,111.8681 Q4231.4175,111.8681 4230.73,112.9462 Q4230.0425,114.0087 4230.0425,116.1025 Q4230.0425,118.1962 4230.73,119.2744 Q4231.4175,120.3369 4232.7613,120.3369 Q4233.3863,120.3369 4233.98,120.0712 Q4234.5738,119.79 4235.1988,119.2119 L4235.1988,121.9306 Z " fill="#000000"/><text fill="#000000" font-family="sans-serif" font-size="14" lengthAdjust="spacing" textLength="11.1836" x="4246.23" y="121.1367">js</text><line style="stroke:#181818;stroke-width:0.5;" x1="4218.23" x2="4259.4136" y1="132.29" y2="132.29"/><line style="stroke:#181818;stroke-width:0.5;" x1="4218.23" x2="4259.4136" y1="140.29" y2="140.29"/></g><!--class html--><g class="entity" data-entity="html" data-source-line="36" data-uid="ent0043" id="entity_html"><rect fill="#F1F1F1" height="48" rx="2.5" ry="2.5" style="stroke:#181818;stroke-width:0.5;" width="63.8896" x="4433.88" y="100.29"/><ellipse cx="4448.88" cy="116.29" fill="#ADD1B2" rx="11" ry="11" style="stroke:#181818;stroke-width:1;"/><path d="M4451.8488,121.9306 Q4451.2706,122.2275 4450.63,122.3681 Q4449.9894,122.5244 4449.2863,122.5244 Q4446.7863,122.5244 4445.4581,120.8837 Q4444.1456,119.2275 4444.1456,116.1025 Q4444.1456,112.9775 4445.4581,111.3212 Q4446.7863,109.665 4449.2863,109.665 Q4449.9894,109.665 4450.63,109.8212 Q4451.2863,109.9775 4451.8488,110.2744 L4451.8488,112.9931 Q4451.2238,112.415 4450.63,112.1494 Q4450.0363,111.8681 4449.4113,111.8681 Q4448.0675,111.8681 4447.38,112.9462 Q4446.6925,114.0087 4446.6925,116.1025 Q4446.6925,118.1962 4447.38,119.2744 Q4448.0675,120.3369 4449.4113,120.3369 Q4450.0363,120.3369 4450.63,120.0712 Q4451.2238,119.79 4451.8488,119.2119 L4451.8488,121.9306 Z " fill="#000000"/><text fill="#000000" font-family="sans-serif" font-size="14" lengthAdjust="spacing" textLength="31.8896" x="4462.88" y="121.1367">html</text><line style="stroke:#181818;stroke-width:0.5;" x1="4434.88" x2="4496.7696" y1="132.29" y2="132.29"/><line style="stroke:#181818;stroke-width:0.5;" x1="4434.88" x2="4496.7696" y1="140.29" y2="140.29"/></g><!--class html--><g class="entity" data-entity="html" data-source-line="36" data-uid="ent0046" id="entity_html"><rect fill="#F1F1F1" height="48" rx="2.5" ry="2.5" style="stroke:#181818;stroke-width:0.5;" width="63.8896" x="4433.88" y="288.59"/><ellipse cx="4448.88" cy="304.59" fill="#ADD1B2" rx="11" ry="11" style="stroke:#181818;stroke-width:1;"/><path d="M4451.8488,310.2306 Q4451.2706,310.5275 4450.63,310.6681 Q4449.9894,310.8244 4449.2863,310.8244 Q4446.7863,310.8244 4445.4581,309.1838 Q4444.1456,307.5275 4444.1456,304.4025 Q4444.1456,301.2775 4445.4581,299.6213 Q4446.7863,297.965 4449.2863,297.965 Q4449.9894,297.965 4450.63,298.1213 Q4451.2863,298.2775 4451.8488,298.5744 L4451.8488,301.2931 Q4451.2238,300.715 4450.63,300.4494 Q4450.0363,300.1681 4449.4113,300.1681 Q4448.0675,300.1681 4447.38,301.2463 Q4446.6925,302.3088 4446.6925,304.4025 Q4446.6925,306.4963 4447.38,307.5744 Q4448.0675,308.6369 4449.4113,308.6369 Q4450.0363,308.6369 4450.63,308.3713 Q4451.2238,308.09 4451.8488,307.5119 L4451.8488,310.2306 Z " fill="#000000"/><text fill="#000000" font-family="sans-serif" font-size="14" lengthAdjust="spacing" textLength="31.8896" x="4462.88" y="309.4367">html</text><line style="stroke:#181818;stroke-width:0.5;" x1="4434.88" x2="4496.7696" y1="320.59" y2="320.59"/><line style="stroke:#181818;stroke-width:0.5;" x1="4434.88" x2="4496.7696" y1="328.59" y2="328.59"/></g><!--class html--><g class="entity" data-entity="html" data-source-line="37" data-uid="ent0048" id="entity_html"><rect fill="#F1F1F1" height="48" rx="2.5" ry="2.5" style="stroke:#181818;stroke-width:0.5;" width="63.8896" x="3938.88" y="436.59"/><ellipse cx="3953.88" cy="452.59" fill="#ADD1B2" rx="11" ry="11" style="stroke:#181818;stroke-width:1;"/><path d="M3956.8488,458.2306 Q3956.2706,458.5275 3955.63,458.6681 Q3954.9894,458.8244 3954.2863,458.8244 Q3951.7863,458.8244 3950.4581,457.1838 Q3949.1456,455.5275 3949.1456,452.4025 Q3949.1456,449.2775 3950.4581,447.6213 Q3951.7863,445.965 3954.2863,445.965 Q3954.9894,445.965 3955.63,446.1213 Q3956.2863,446.2775 3956.8488,446.5744 L3956.8488,449.2931 Q3956.2238,448.715 3955.63,448.4494 Q3955.0363,448.1681 3954.4113,448.1681 Q3953.0675,448.1681 3952.38,449.2463 Q3951.6925,450.3088 3951.6925,452.4025 Q3951.6925,454.4963 3952.38,455.5744 Q3953.0675,456.6369 3954.4113,456.6369 Q3955.0363,456.6369 3955.63,456.3713 Q3956.2238,456.09 3956.8488,455.5119 L3956.8488,458.2306 Z " fill="#000000"/><text fill="#000000" font-family="sans-serif" font-size="14" lengthAdjust="spacing" textLength="31.8896" x="3967.88" y="457.4367">html</text><line style="stroke:#181818;stroke-width:0.5;" x1="3939.88" x2="4001.7696" y1="468.59" y2="468.59"/><line style="stroke:#181818;stroke-width:0.5;" x1="3939.88" x2="4001.7696" y1="476.59" y2="476.59"/></g><!--class html--><g class="entity" data-entity="html" data-source-line="38" data-uid="ent0051" id="entity_html"><rect fill="#F1F1F1" height="48" rx="2.5" ry="2.5" style="stroke:#181818;stroke-width:0.5;" width="63.8896" x="4163.88" y="436.59"/><ellipse cx="4178.88" cy="452.59" fill="#ADD1B2" rx="11" ry="11" style="stroke:#181818;stroke-width:1;"/><path d="M4181.8488,458.2306 Q4181.2706,458.5275 4180.63,458.6681 Q4179.9894,458.8244 4179.2863,458.8244 Q4176.7863,458.8244 4175.4581,457.1838 Q4174.1456,455.5275 4174.1456,452.4025 Q4174.1456,449.2775 4175.4581,447.6213 Q4176.7863,445.965 4179.2863,445.965 Q4179.9894,445.965 4180.63,446.1213 Q4181.2863,446.2775 4181.8488,446.5744 L4181.8488,449.2931 Q4181.2238,448.715 4180.63,448.4494 Q4180.0363,448.1681 4179.4113,448.1681 Q4178.0675,448.1681 4177.38,449.2463 Q4176.6925,450.3088 4176.6925,452.4025 Q4176.6925,454.4963 4177.38,455.5744 Q4178.0675,456.6369 4179.4113,456.6369 Q4180.0363,456.6369 4180.63,456.3713 Q4181.2238,456.09 4181.8488,455.5119 L4181.8488,458.2306 Z " fill="#000000"/><text fill="#000000" font-family="sans-serif" font-size="14" lengthAdjust="spacing" textLength="31.8896" x="4192.88" y="457.4367">html</text><line style="stroke:#181818;stroke-width:0.5;" x1="4164.88" x2="4226.7696" y1="468.59" y2="468.59"/><line style="stroke:#181818;stroke-width:0.5;" x1="4164.88" x2="4226.7696" y1="476.59" y2="476.59"/></g><!--class html--><g class="entity" data-entity="html" data-source-line="39" data-uid="ent0054" id="entity_html"><rect fill="#F1F1F1" height="48" rx="2.5" ry="2.5" style="stroke:#181818;stroke-width:0.5;" width="63.8896" x="4374.88" y="436.59"/><ellipse cx="4389.88" cy="452.59" fill="#ADD1B2" rx="11" ry="11" style="stroke:#181818;stroke-width:1;"/><path d="M4392.8488,458.2306 Q4392.2706,458.5275 4391.63,458.6681 Q4390.9894,458.8244 4390.2863,458.8244 Q4387.7863,458.8244 4386.4581,457.1838 Q4385.1456,455.5275 4385.1456,452.4025 Q4385.1456,449.2775 4386.4581,447.6213 Q4387.7863,445.965 4390.2863,445.965 Q4390.9894,445.965 4391.63,446.1213 Q4392.2863,446.2775 4392.8488,446.5744 L4392.8488,449.2931 Q4392.2238,448.715 4391.63,448.4494 Q4391.0363,448.1681 4390.4113,448.1681 Q4389.0675,448.1681 4388.38,449.2463 Q4387.6925,450.3088 4387.6925,452.4025 Q4387.6925,454.4963 4388.38,455.5744 Q4389.0675,456.6369 4390.4113,456.6369 Q4391.0363,456.6369 4391.63,456.3713 Q4392.2238,456.09 4392.8488,455.5119 L4392.8488,458.2306 Z " fill="#000000"/><text fill="#000000" font-family="sans-serif" font-size="14" lengthAdjust="spacing" textLength="31.8896" x="4403.88" y="457.4367">html</text><line style="stroke:#181818;stroke-width:0.5;" x1="4375.88" x2="4437.7696" y1="468.59" y2="468.59"/><line style="stroke:#181818;stroke-width:0.5;" x1="4375.88" x2="4437.7696" y1="476.59" y2="476.59"/></g><!--class html--><g class="entity" data-entity="html" data-source-line="40" data-uid="ent0057" id="entity_html"><rect fill="#F1F1F1" height="48" rx="2.5" ry="2.5" style="stroke:#181818;stroke-width:0.5;" width="63.8896" x="4494.88" y="436.59"/><ellipse cx="4509.88" cy="452.59" fill="#ADD1B2" rx="11" ry="11" style="stroke:#181818;stroke-width:1;"/><path d="M4512.8488,458.2306 Q4512.2706,458.5275 4511.63,458.6681 Q4510.9894,458.8244 4510.2863,458.8244 Q4507.7863,458.8244 4506.4581,457.1838 Q4505.1456,455.5275 4505.1456,452.4025 Q4505.1456,449.2775 4506.4581,447.6213 Q4507.7863,445.965 4510.2863,445.965 Q4510.9894,445.965 4511.63,446.1213 Q4512.2863,446.2775 4512.8488,446.5744 L4512.8488,449.2931 Q4512.2238,448.715 4511.63,448.4494 Q4511.0363,448.1681 4510.4113,448.1681 Q4509.0675,448.1681 4508.38,449.2463 Q4507.6925,450.3088 4507.6925,452.4025 Q4507.6925,454.4963 4508.38,455.5744 Q4509.0675,456.6369 4510.4113,456.6369 Q4511.0363,456.6369 4511.63,456.3713 Q4512.2238,456.09 4512.8488,455.5119 L4512.8488,458.2306 Z " fill="#000000"/><text fill="#000000" font-family="sans-serif" font-size="14" lengthAdjust="spacing" textLength="31.8896" x="4523.88" y="457.4367">html</text><line style="stroke:#181818;stroke-width:0.5;" x1="4495.88" x2="4557.7696" y1="468.59" y2="468.59"/><line style="stroke:#181818;stroke-width:0.5;" x1="4495.88" x2="4557.7696" y1="476.59" y2="476.59"/></g><!--class html--><g class="entity" data-entity="html" data-source-line="41" data-uid="ent0060" id="entity_html"><rect fill="#F1F1F1" height="48" rx="2.5" ry="2.5" style="stroke:#181818;stroke-width:0.5;" width="63.8896" x="4748.88" y="436.59"/><ellipse cx="4763.88" cy="452.59" fill="#ADD1B2" rx="11" ry="11" style="stroke:#181818;stroke-width:1;"/><path d="M4766.8488,458.2306 Q4766.2706,458.5275 4765.63,458.6681 Q4764.9894,458.8244 4764.2863,458.8244 Q4761.7863,458.8244 4760.4581,457.1838 Q4759.1456,455.5275 4759.1456,452.4025 Q4759.1456,449.2775 4760.4581,447.6213 Q4761.7863,445.965 4764.2863,445.965 Q4764.9894,445.965 4765.63,446.1213 Q4766.2863,446.2775 4766.8488,446.5744 L4766.8488,449.2931 Q4766.2238,448.715 4765.63,448.4494 Q4765.0363,448.1681 4764.4113,448.1681 Q4763.0675,448.1681 4762.38,449.2463 Q4761.6925,450.3088 4761.6925,452.4025 Q4761.6925,454.4963 4762.38,455.5744 Q4763.0675,456.6369 4764.4113,456.6369 Q4765.0363,456.6369 4765.63,456.3713 Q4766.2238,456.09 4766.8488,455.5119 L4766.8488,458.2306 Z " fill="#000000"/><text fill="#000000" font-family="sans-serif" font-size="14" lengthAdjust="spacing" textLength="31.8896" x="4777.88" y="457.4367">html</text><line style="stroke:#181818;stroke-width:0.5;" x1="4749.88" x2="4811.7696" y1="468.59" y2="468.59"/><line style="stroke:#181818;stroke-width:0.5;" x1="4749.88" x2="4811.7696" y1="476.59" y2="476.59"/></g><!--class html--><g class="entity" data-entity="html" data-source-line="42" data-uid="ent0063" id="entity_html"><rect fill="#F1F1F1" height="48" rx="2.5" ry="2.5" style="stroke:#181818;stroke-width:0.5;" width="63.8896" x="5008.88" y="436.59"/><ellipse cx="5023.88" cy="452.59" fill="#ADD1B2" rx="11" ry="11" style="stroke:#181818;stroke-width:1;"/><path d="M5026.8488,458.2306 Q5026.2706,458.5275 5025.63,458.6681 Q5024.9894,458.8244 5024.2863,458.8244 Q5021.7863,458.8244 5020.4581,457.1838 Q5019.1456,455.5275 5019.1456,452.4025 Q5019.1456,449.2775 5020.4581,447.6213 Q5021.7863,445.965 5024.2863,445.965 Q5024.9894,445.965 5025.63,446.1213 Q5026.2863,446.2775 5026.8488,446.5744 L5026.8488,449.2931 Q5026.2238,448.715 5025.63,448.4494 Q5025.0363,448.1681 5024.4113,448.1681 Q5023.0675,448.1681 5022.38,449.2463 Q5021.6925,450.3088 5021.6925,452.4025 Q5021.6925,454.4963 5022.38,455.5744 Q5023.0675,456.6369 5024.4113,456.6369 Q5025.0363,456.6369 5025.63,456.3713 Q5026.2238,456.09 5026.8488,455.5119 L5026.8488,458.2306 Z " fill="#000000"/><text fill="#000000" font-family="sans-serif" font-size="14" lengthAdjust="spacing" textLength="31.8896" x="5037.88" y="457.4367">html</text><line style="stroke:#181818;stroke-width:0.5;" x1="5009.88" x2="5071.7696" y1="468.59" y2="468.59"/><line style="stroke:#181818;stroke-width:0.5;" x1="5009.88" x2="5071.7696" y1="476.59" y2="476.59"/></g><!--class html--><g class="entity" data-entity="html" data-source-line="44" data-uid="ent0066" id="entity_html"><rect fill="#F1F1F1" height="48" rx="2.5" ry="2.5" style="stroke:#181818;stroke-width:0.5;" width="63.8896" x="133.88" y="100.29"/><ellipse cx="148.88" cy="116.29" fill="#ADD1B2" rx="11" ry="11" style="stroke:#181818;stroke-width:1;"/><path d="M151.8488,121.9306 Q151.2706,122.2275 150.63,122.3681 Q149.9894,122.5244 149.2863,122.5244 Q146.7863,122.5244 145.4581,120.8837 Q144.1456,119.2275 144.1456,116.1025 Q144.1456,112.9775 145.4581,111.3212 Q146.7863,109.665 149.2863,109.665 Q149.9894,109.665 150.63,109.8212 Q151.2863,109.9775 151.8488,110.2744 L151.8488,112.9931 Q151.2238,112.415 150.63,112.1494 Q150.0363,111.8681 149.4113,111.8681 Q148.0675,111.8681 147.38,112.9462 Q146.6925,114.0087 146.6925,116.1025 Q146.6925,118.1962 147.38,119.2744 Q148.0675,120.3369 149.4113,120.3369 Q150.0363,120.3369 150.63,120.0712 Q151.2238,119.79 151.8488,119.2119 L151.8488,121.9306 Z " fill="#000000"/><text fill="#000000" font-family="sans-serif" font-size="14" lengthAdjust="spacing" textLength="31.8896" x="162.88" y="121.1367">html</text><line style="stroke:#181818;stroke-width:0.5;" x1="134.88" x2="196.7696" y1="132.29" y2="132.29"/><line style="stroke:#181818;stroke-width:0.5;" x1="134.88" x2="196.7696" y1="140.29" y2="140.29"/></g><!--class js--><g class="entity" data-entity="js" data-source-line="44" data-uid="ent0069" id="entity_js"><rect fill="#F1F1F1" height="48" rx="2.5" ry="2.5" style="stroke:#181818;stroke-width:0.5;" width="43.1836" x="343.23" y="288.59"/><ellipse cx="358.23" cy="304.59" fill="#ADD1B2" rx="11" ry="11" style="stroke:#181818;stroke-width:1;"/><path d="M361.1988,310.2306 Q360.6206,310.5275 359.98,310.6681 Q359.3394,310.8244 358.6363,310.8244 Q356.1363,310.8244 354.8081,309.1838 Q353.4956,307.5275 353.4956,304.4025 Q353.4956,301.2775 354.8081,299.6213 Q356.1363,297.965 358.6363,297.965 Q359.3394,297.965 359.98,298.1213 Q360.6363,298.2775 361.1988,298.5744 L361.1988,301.2931 Q360.5738,300.715 359.98,300.4494 Q359.3863,300.1681 358.7613,300.1681 Q357.4175,300.1681 356.73,301.2463 Q356.0425,302.3088 356.0425,304.4025 Q356.0425,306.4963 356.73,307.5744 Q357.4175,308.6369 358.7613,308.6369 Q359.3863,308.6369 359.98,308.3713 Q360.5738,308.09 361.1988,307.5119 L361.1988,310.2306 Z " fill="#000000"/><text fill="#000000" font-family="sans-serif" font-size="14" lengthAdjust="spacing" textLength="11.1836" x="372.23" y="309.4367">js</text><line style="stroke:#181818;stroke-width:0.5;" x1="344.23" x2="385.4136" y1="320.59" y2="320.59"/><line style="stroke:#181818;stroke-width:0.5;" x1="344.23" x2="385.4136" y1="328.59" y2="328.59"/></g><!--class html--><g class="entity" data-entity="html" data-source-line="45" data-uid="ent0071" id="entity_html"><rect fill="#F1F1F1" height="48" rx="2.5" ry="2.5" style="stroke:#181818;stroke-width:0.5;" width="63.8896" x="258.88" y="100.29"/><ellipse cx="273.88" cy="116.29" fill="#ADD1B2" rx="11" ry="11" style="stroke:#181818;stroke-width:1;"/><path d="M276.8488,121.9306 Q276.2706,122.2275 275.63,122.3681 Q274.9894,122.5244 274.2863,122.5244 Q271.7863,122.5244 270.4581,120.8837 Q269.1456,119.2275 269.1456,116.1025 Q269.1456,112.9775 270.4581,111.3212 Q271.7863,109.665 274.2863,109.665 Q274.9894,109.665 275.63,109.8212 Q276.2863,109.9775 276.8488,110.2744 L276.8488,112.9931 Q276.2238,112.415 275.63,112.1494 Q275.0363,111.8681 274.4113,111.8681 Q273.0675,111.8681 272.38,112.9462 Q271.6925,114.0087 271.6925,116.1025 Q271.6925,118.1962 272.38,119.2744 Q273.0675,120.3369 274.4113,120.3369 Q275.0363,120.3369 275.63,120.0712 Q276.2238,119.79 276.8488,119.2119 L276.8488,121.9306 Z " fill="#000000"/><text fill="#000000" font-family="sans-serif" font-size="14" lengthAdjust="spacing" textLength="31.8896" x="287.88" y="121.1367">html</text><line style="stroke:#181818;stroke-width:0.5;" x1="259.88" x2="321.7696" y1="132.29" y2="132.29"/><line style="stroke:#181818;stroke-width:0.5;" x1="259.88" x2="321.7696" y1="140.29" y2="140.29"/></g><!--class js--><g class="entity" data-entity="js" data-source-line="46" data-uid="ent0074" id="entity_js"><rect fill="#F1F1F1" height="48" rx="2.5" ry="2.5" style="stroke:#181818;stroke-width:0.5;" width="43.1836" x="432.23" y="100.29"/><ellipse cx="447.23" cy="116.29" fill="#ADD1B2" rx="11" ry="11" style="stroke:#181818;stroke-width:1;"/><path d="M450.1988,121.9306 Q449.6206,122.2275 448.98,122.3681 Q448.3394,122.5244 447.6363,122.5244 Q445.1363,122.5244 443.8081,120.8837 Q442.4956,119.2275 442.4956,116.1025 Q442.4956,112.9775 443.8081,111.3212 Q445.1363,109.665 447.6363,109.665 Q448.3394,109.665 448.98,109.8212 Q449.6363,109.9775 450.1988,110.2744 L450.1988,112.9931 Q449.5738,112.415 448.98,112.1494 Q448.3863,111.8681 447.7613,111.8681 Q446.4175,111.8681 445.73,112.9462 Q445.0425,114.0087 445.0425,116.1025 Q445.0425,118.1962 445.73,119.2744 Q446.4175,120.3369 447.7613,120.3369 Q448.3863,120.3369 448.98,120.0712 Q449.5738,119.79 450.1988,119.2119 L450.1988,121.9306 Z " fill="#000000"/><text fill="#000000" font-family="sans-serif" font-size="14" lengthAdjust="spacing" textLength="11.1836" x="461.23" y="121.1367">js</text><line style="stroke:#181818;stroke-width:0.5;" x1="433.23" x2="474.4136" y1="132.29" y2="132.29"/><line style="stroke:#181818;stroke-width:0.5;" x1="433.23" x2="474.4136" y1="140.29" y2="140.29"/></g><!--class js--><g class="entity" data-entity="js" data-source-line="48" data-uid="ent0077" id="entity_js"><rect fill="#F1F1F1" height="48" rx="2.5" ry="2.5" style="stroke:#181818;stroke-width:0.5;" width="43.1836" x="636.23" y="100.29"/><ellipse cx="651.23" cy="116.29" fill="#ADD1B2" rx="11" ry="11" style="stroke:#181818;stroke-width:1;"/><path d="M654.1988,121.9306 Q653.6206,122.2275 652.98,122.3681 Q652.3394,122.5244 651.6363,122.5244 Q649.1363,122.5244 647.8081,120.8837 Q646.4956,119.2275 646.4956,116.1025 Q646.4956,112.9775 647.8081,111.3212 Q649.1363,109.665 651.6363,109.665 Q652.3394,109.665 652.98,109.8212 Q653.6363,109.9775 654.1988,110.2744 L654.1988,112.9931 Q653.5738,112.415 652.98,112.1494 Q652.3863,111.8681 651.7613,111.8681 Q650.4175,111.8681 649.73,112.9462 Q649.0425,114.0087 649.0425,116.1025 Q649.0425,118.1962 649.73,119.2744 Q650.4175,120.3369 651.7613,120.3369 Q652.3863,120.3369 652.98,120.0712 Q653.5738,119.79 654.1988,119.2119 L654.1988,121.9306 Z " fill="#000000"/><text fill="#000000" font-family="sans-serif" font-size="14" lengthAdjust="spacing" textLength="11.1836" x="665.23" y="121.1367">js</text><line style="stroke:#181818;stroke-width:0.5;" x1="637.23" x2="678.4136" y1="132.29" y2="132.29"/><line style="stroke:#181818;stroke-width:0.5;" x1="637.23" x2="678.4136" y1="140.29" y2="140.29"/></g><!--class backend--><g class="entity" data-entity="backend" data-source-line="51" data-uid="ent0081" id="entity_backend"><rect fill="#F1F1F1" height="48" rx="2.5" ry="2.5" style="stroke:#181818;stroke-width:0.5;" width="91.6436" x="7" y="100.29"/><ellipse cx="22" cy="116.29" fill="#ADD1B2" rx="11" ry="11" style="stroke:#181818;stroke-width:1;"/><path d="M24.9688,121.9306 Q24.3906,122.2275 23.75,122.3681 Q23.1094,122.5244 22.4063,122.5244 Q19.9063,122.5244 18.5781,120.8837 Q17.2656,119.2275 17.2656,116.1025 Q17.2656,112.9775 18.5781,111.3212 Q19.9063,109.665 22.4063,109.665 Q23.1094,109.665 23.75,109.8212 Q24.4063,109.9775 24.9688,110.2744 L24.9688,112.9931 Q24.3438,112.415 23.75,112.1494 Q23.1563,111.8681 22.5313,111.8681 Q21.1875,111.8681 20.5,112.9462 Q19.8125,114.0087 19.8125,116.1025 Q19.8125,118.1962 20.5,119.2744 Q21.1875,120.3369 22.5313,120.3369 Q23.1563,120.3369 23.75,120.0712 Q24.3438,119.79 24.9688,119.2119 L24.9688,121.9306 Z " fill="#000000"/><text fill="#000000" font-family="sans-serif" font-size="14" lengthAdjust="spacing" textLength="59.6436" x="36" y="121.1367">backend</text><line style="stroke:#181818;stroke-width:0.5;" x1="8" x2="97.6436" y1="132.29" y2="132.29"/><line style="stroke:#181818;stroke-width:0.5;" x1="8" x2="97.6436" y1="140.29" y2="140.29"/></g><!--link html to html--><g class="link" data-entity-1="html" data-entity-2="html" data-source-line="36" data-uid="lnk47" id="link_html_html"><path codeLine="36" d="M4465.82,148.51 C4465.82,184.31 4465.82,246.58 4465.82,282.37" fill="none" id="html-to-html" style="stroke:#181818;stroke-width:1;"/><polygon fill="#181818" points="4465.82,288.37,4469.82,279.37,4465.82,283.37,4461.82,279.37,4465.82,288.37" style="stroke:#181818;stroke-width:1;"/><text fill="#000000" font-family="sans-serif" font-size="13" lengthAdjust="spacing" textLength="76.5527" x="4466.82" y="233.6569">Navegaci&#243;n</text></g><!--link html to html--><g class="link" data-entity-1="html" data-entity-2="html" data-source-line="37" data-uid="lnk50" id="link_html_html"><path codeLine="37" d="M4433.45,320.49 C4375.58,333.1 4250.83,361.54 4147.82,393.59 C4096.47,409.57 4043.8354,429.918 4008.6354,444.098" fill="none" id="html-to-html-1" style="stroke:#181818;stroke-width:1;"/><polygon fill="#181818" points="4003.07,446.34,4012.9127,446.6873,4007.7078,444.4717,4009.9234,439.2668,4003.07,446.34" style="stroke:#181818;stroke-width:1;"/><text fill="#000000" font-family="sans-serif" font-size="13" lengthAdjust="spacing" textLength="45.9126" x="4234.82" y="381.6569">Acceso</text></g><!--link html to html--><g class="link" data-entity-1="html" data-entity-2="html" data-source-line="38" data-uid="lnk53" id="link_html_html"><path codeLine="38" d="M4433.52,331.06 C4381.59,359.14 4285.3879,411.1562 4233.4379,439.2462" fill="none" id="html-to-html-2" style="stroke:#181818;stroke-width:1;"/><polygon fill="#181818" points="4228.16,442.1,4237.9793,441.3379,4232.5582,439.7218,4234.1743,434.3007,4228.16,442.1" style="stroke:#181818;stroke-width:1;"/><text fill="#000000" font-family="sans-serif" font-size="13" lengthAdjust="spacing" textLength="45.9126" x="4363.82" y="381.6569">Acceso</text></g><!--link html to html--><g class="link" data-entity-1="html" data-entity-2="html" data-source-line="39" data-uid="lnk56" id="link_html_html"><path codeLine="39" d="M4446.7,337.06 C4439.88,346.4 4432.7,357.55 4427.82,368.59 C4418.13,390.54 4413.548,411.6006 4410.628,430.4606" fill="none" id="html-to-html-3" style="stroke:#181818;stroke-width:1;"/><polygon fill="#181818" points="4409.71,436.39,4415.0399,428.108,4410.475,431.4489,4407.1341,426.884,4409.71,436.39" style="stroke:#181818;stroke-width:1;"/><text fill="#000000" font-family="sans-serif" font-size="13" lengthAdjust="spacing" textLength="45.9126" x="4428.82" y="381.6569">Acceso</text></g><!--link html to html--><g class="link" data-entity-1="html" data-entity-2="html" data-source-line="40" data-uid="lnk59" id="link_html_html"><path codeLine="40" d="M4475.62,337.05 C4487.01,364.29 4503.3557,403.4343 4514.7357,430.6543" fill="none" id="html-to-html-4" style="stroke:#181818;stroke-width:1;"/><polygon fill="#181818" points="4517.05,436.19,4517.269,426.3436,4515.1214,431.5769,4509.888,429.4294,4517.05,436.19" style="stroke:#181818;stroke-width:1;"/><text fill="#000000" font-family="sans-serif" font-size="13" lengthAdjust="spacing" textLength="45.9126" x="4494.82" y="381.6569">Acceso</text></g><!--link html to html--><g class="link" data-entity-1="html" data-entity-2="html" data-source-line="41" data-uid="lnk62" id="link_html_html"><path codeLine="41" d="M4498.05,328.53 C4558.42,356.51 4682.4461,413.9973 4742.9561,442.0373" fill="none" id="html-to-html-5" style="stroke:#181818;stroke-width:1;"/><polygon fill="#181818" points="4748.4,444.56,4741.9159,437.1467,4743.8634,442.4578,4738.5524,444.4053,4748.4,444.56" style="stroke:#181818;stroke-width:1;"/><text fill="#000000" font-family="sans-serif" font-size="13" lengthAdjust="spacing" textLength="45.9126" x="4614.82" y="381.6569">Acceso</text></g><!--link html to html--><g class="link" data-entity-1="html" data-entity-2="html" data-source-line="42" data-uid="lnk65" id="link_html_html"><path codeLine="42" d="M4498.09,319.74 C4561.75,332.1 4707.81,361.48 4828.82,393.59 C4893.09,410.64 4961.3211,432.7731 5002.7011,446.6431" fill="none" id="html-to-html-6" style="stroke:#181818;stroke-width:1;"/><polygon fill="#181818" points="5008.39,448.55,5001.1278,441.8971,5003.6492,446.961,4998.5854,449.4823,5008.39,448.55" style="stroke:#181818;stroke-width:1;"/><text fill="#000000" font-family="sans-serif" font-size="13" lengthAdjust="spacing" textLength="45.9126" x="4789.82" y="381.6569">Acceso</text></g><!--link html to js--><g class="link" data-entity-1="html" data-entity-2="js" data-source-line="44" data-uid="lnk70" id="link_html_js"><path codeLine="44" d="M163.58,148.56 C162.47,173.29 164.58,212.26 184.82,237.59 C224.79,287.61 298.274,303.3168 336.844,308.5268" fill="none" id="html-to-js" style="stroke:#181818;stroke-width:1;"/><polygon fill="#181818" points="342.79,309.33,334.4065,304.1612,337.835,308.6607,333.3355,312.0892,342.79,309.33" style="stroke:#181818;stroke-width:1;"/><text fill="#000000" font-family="sans-serif" font-size="13" lengthAdjust="spacing" textLength="89.8955" x="185.82" y="233.6569">CRUD usuario</text></g><!--link html to js--><g class="link" data-entity-1="html" data-entity-2="js" data-source-line="45" data-uid="lnk73" id="link_html_js"><path codeLine="45" d="M284.71,148.71 C279.82,172.19 275.59,208.88 287.82,237.59 C298.94,263.69 319.3468,281.5904 337.9368,294.5404" fill="none" id="html-to-js-1" style="stroke:#181818;stroke-width:1;"/><polygon fill="#181818" points="342.86,297.97,337.7616,289.5435,338.7573,295.112,333.1888,296.1078,342.86,297.97" style="stroke:#181818;stroke-width:1;"/><text fill="#000000" font-family="sans-serif" font-size="13" lengthAdjust="spacing" textLength="106.3232" x="288.82" y="233.6569">Registro usuario</text></g><!--link js to js--><g class="link" data-entity-1="js" data-entity-2="js" data-source-line="46" data-uid="lnk76" id="link_js_js"><path codeLine="46" d="M442.73,148.51 C425.63,184.31 395.5966,247.1662 378.4966,282.9562" fill="none" id="js-to-js" style="stroke:#181818;stroke-width:1;"/><polygon fill="#181818" points="375.91,288.37,383.3992,281.9737,378.0655,283.8585,376.1808,278.5249,375.91,288.37" style="stroke:#181818;stroke-width:1;"/><text fill="#000000" font-family="sans-serif" font-size="13" lengthAdjust="spacing" textLength="82.5005" x="407.82" y="233.6569">CRUD admin</text></g><!--link js to js--><g class="link" data-entity-1="js" data-entity-2="js" data-source-line="49" data-uid="lnk80" id="link_js_js"><path codeLine="49" d="M475.27,148.61 C494.05,172.02 515.9,208.65 498.82,237.59 C474.51,278.79 423.9467,297.1295 392.6167,305.2795" fill="none" id="js-to-js-1" style="stroke:#181818;stroke-width:1;"/><polygon fill="#181818" points="386.81,306.79,396.5271,308.3954,391.649,305.5312,394.5131,300.653,386.81,306.79" style="stroke:#181818;stroke-width:1;"/><text fill="#000000" font-family="sans-serif" font-size="13" lengthAdjust="spacing" textLength="53.8091" x="505.82" y="233.6569">API calls</text></g><!--link js to js--><g class="link" data-entity-1="js" data-entity-2="js" data-source-line="48" data-uid="lnk79" id="link_js_js"><path codeLine="48" d="M644.49,148.66 C629.02,173.85 601.32,213.56 567.82,237.59 C509.91,279.14 432.0231,298.6016 392.6831,306.4816" fill="none" id="js-to-js-2" style="stroke:#181818;stroke-width:1;"/><polygon fill="#181818" points="386.8,307.66,396.4103,309.8145,391.7026,306.678,394.8391,301.9703,386.8,307.66" style="stroke:#181818;stroke-width:1;"/><text fill="#000000" font-family="sans-serif" font-size="13" lengthAdjust="spacing" textLength="53.8091" x="587.82" y="233.6569">API calls</text></g><!--link backend to js--><g class="link" data-entity-1="backend" data-entity-2="js" data-source-line="51" data-uid="lnk82" id="link_backend_js"><path codeLine="51" d="M58.2,148.59 C65.28,174.09 80.21,214.43 107.82,237.59 C178.62,296.96 288.6469,308.4525 336.8069,310.7625" fill="none" id="backend-to-js" style="stroke:#181818;stroke-width:1;stroke-dasharray:7,7;"/><polygon fill="#181818" points="342.8,311.05,334.002,306.6234,337.8057,310.8104,333.6187,314.6142,342.8,311.05" style="stroke:#181818;stroke-width:1;"/><text fill="#000000" font-family="sans-serif" font-size="13" lengthAdjust="spacing" textLength="58.1382" x="108.82" y="233.6569">API REST</text></g><!--SRC=[ZPJFJiCm3CRlVOfeLxGz00San1y92I4qu5nvYUaCQLp5AGAXFHMFm8kHjh0rNJTwIp_xivFcvrIWNw50DRlsx08wCrEVcLBQWeWYP_1ziGwbRKMbJcwv8DSjx-0D2z3q_TK8cwsfylnC5XFRFVgeAOEgbXeySITV6MhzJS10O4aAUIn8WkUaql9NJ6ljJ0PalMBm9kqF3ctS6JbD5TXEFDSQXHMeDNeF9Q4B80fCIUc1MYKFp5RoTYrjxT5uStWKONyaHq9jOgyZ6UH01th3l1OyLecT9OTvy42EN74eCTTSUy5XeSh7wyQyXBXjhkfg4Fwe3Om5TEGaRez7Ox4F3_fG6VcIxQU4ZmY7bfwYFLNnTxp87aCzgNzkpMN9hX-Lke8LIEA86tsceb4sMTP3UJu_6s9ogleq3u9D_W46eh6Zw3_FW8l9leILoQuHVYPxnvYQQ4uustcov4LeBBtRYcaNowVBxIodGx-Vl9t_FyCe5uUwTCETxOWRIJo_lr4Qh9N9fNUER1MVqpXLQh4OIrfUFJp-0000]--></g></svg>